# Created by Metasequoia

mtllib shi.mtl

v -10.920072 5.306231 -23.016481
v -4.928522 5.306231 -27.473305
v -10.920072 -4.398262 -23.016481
v -4.928522 -4.398262 -27.473305
v 2.538434 5.306231 -27.557213
v 2.538434 -4.398262 -27.557213
v 8.628648 5.306231 -23.236181
v 8.628648 -4.398262 -23.236181
v 11.015855 5.306231 -16.160633
v 11.015855 -4.398262 -16.160633
v 8.788260 5.306231 -9.033224
v 8.788260 -4.398262 -9.033224
v 2.796697 5.306231 -4.576360
v 2.796697 -4.398262 -4.576360
v -4.670237 5.306231 -4.492458
v -4.670237 -4.398262 -4.492460
v -10.760454 5.306231 -8.813529
v -10.760454 -4.398262 -8.813529
v -13.147665 5.306231 -15.889076
v -13.147665 -4.398262 -15.889076
v -4.928522 7.254240 -27.473305
v -10.920072 7.254240 -23.016481
v -1.065902 7.254240 -16.024858
v 2.538434 7.254240 -27.557213
v 8.628648 7.254241 -23.236181
v 11.015855 7.254241 -16.160633
v 8.788260 7.254241 -9.033224
v 2.796697 7.254241 -4.576362
v -4.670237 7.254240 -4.492458
v -10.760454 7.254240 -8.813529
v -13.147665 7.254240 -15.889076
v -10.920072 -6.346271 -23.016481
v -4.928522 -6.346271 -27.473305
v -1.065902 -6.346272 -16.024858
v 2.538434 -6.346271 -27.557213
v 8.628648 -6.346269 -23.236181
v 11.015855 -6.346269 -16.160633
v 8.788260 -6.346269 -9.033224
v 2.796697 -6.346269 -4.576360
v -4.670237 -6.346271 -4.492460
v -10.760454 -6.346271 -8.813529
v -13.147665 -6.346271 -15.889076
v -5.657165 5.712193 -29.632992
v -12.778987 5.712193 -24.335424
v -5.657165 6.848279 -29.632992
v -12.778987 6.848279 -24.335424
v 3.218371 5.712193 -29.732674
v 3.218371 6.848279 -29.732674
v 10.457443 5.712193 -24.596523
v 10.457443 6.848280 -24.596523
v 13.295011 5.712193 -16.186264
v 13.295011 6.848280 -16.186264
v 10.647183 5.712193 -7.714291
v 10.647183 6.848280 -7.714291
v 3.525359 5.712193 -2.416695
v 3.525358 6.848280 -2.416693
v -5.350177 5.712193 -2.316942
v -5.350177 6.848279 -2.316942
v -12.589260 5.712193 -7.453157
v -12.589260 6.848279 -7.453157
v -15.426812 5.712193 -15.863470
v -15.426812 6.848279 -15.863470
v -12.778987 -4.804223 -24.335424
v -5.657165 -4.804223 -29.632992
v -12.778987 -5.940308 -24.335424
v -5.657165 -5.940308 -29.632992
v 3.218371 -4.804223 -29.732674
v 3.218371 -5.940308 -29.732674
v 10.457443 -4.804221 -24.596523
v 10.457443 -5.940306 -24.596523
v 13.295011 -4.804221 -16.186264
v 13.295011 -5.940306 -16.186264
v 10.647183 -4.804221 -7.714291
v 10.647183 -5.940306 -7.714291
v 3.525359 -4.804221 -2.416695
v 3.525359 -5.940306 -2.416695
v -5.350173 -4.804223 -2.316941
v -5.350173 -5.940308 -2.316941
v -12.589260 -4.804223 -7.453157
v -12.589260 -5.940308 -7.453157
v -15.426812 -4.804223 -15.863470
v -15.426812 -5.940308 -15.863470
v -1.087159 -3.171771 -15.902220
v -5.427887 -3.171771 -10.104177
v -4.692063 -3.171771 -19.426989
v -33.366493 0.427016 -15.539454
v -4.692063 4.025877 -19.426989
v -1.087159 4.025877 -15.902220
v -5.427891 4.025877 -10.104177
v -0.440343 0.427090 41.650909
v 3.382796 4.025877 -10.203161
v 3.382796 -3.171771 -10.203161
v 31.192186 0.427091 -16.264935
v 2.437610 -3.171771 -19.507114
v 2.437610 4.025877 -19.507114
# 95 vertices

vt 0.97974 0.66198
vt 0.92819 0.63866
vt 0.92819 0.66198
vt 0.97974 0.63866
vt 0.92819 0.59899
vt 0.97974 0.59899
vt 0.97974 0.92250
vt 0.92819 0.89918
vt 0.92819 0.92250
vt 0.97974 0.89918
vt 0.92819 0.86145
vt 0.97974 0.86145
vt 0.92819 0.82373
vt 0.97974 0.82373
vt 0.92819 0.80041
vt 0.97974 0.80041
vt 0.92819 0.76074
vt 0.97974 0.76074
vt 0.92819 0.73743
vt 0.97974 0.73743
vt 0.92819 0.69970
vt 0.97974 0.69970
vt 0.81947 0.45318
vt 0.68466 0.44758
vt 0.70711 0.52789
vt 0.77248 0.57966
vt 0.85580 0.58313
vt 0.92524 0.53696
vt 0.95428 0.45879
vt 0.93183 0.37848
vt 0.86646 0.32670
vt 0.78314 0.32324
vt 0.71370 0.36941
vt 0.98029 0.79126
vt 0.98632 0.81897
vt 0.98632 0.79126
vt 0.98029 0.81897
vt 0.98029 0.74411
vt 0.98632 0.74411
vt 0.98029 0.71639
vt 0.98632 0.71639
vt 0.98029 0.67155
vt 0.98632 0.67155
vt 0.98029 0.62671
vt 0.98632 0.62671
vt 0.98029 0.59899
vt 0.98632 0.59899
vt 0.98029 0.93637
vt 0.98632 0.98352
vt 0.98632 0.93637
vt 0.98029 0.98352
vt 0.98029 0.90866
vt 0.98632 0.90866
vt 0.98029 0.86382
vt 0.98632 0.86382
vt 0.98633 0.81897
vt 0.98030 0.79126
vt 0.98030 0.81897
vt 0.98633 0.79126
vt 0.98029 0.74411
vt 0.98633 0.74411
vt 0.98029 0.71639
vt 0.98633 0.71639
vt 0.98029 0.67155
vt 0.98632 0.67155
vt 0.98028 0.62671
vt 0.98632 0.62671
vt 0.98028 0.59899
vt 0.98631 0.59899
vt 0.98633 0.98352
vt 0.98030 0.93637
vt 0.98029 0.98352
vt 0.98633 0.93637
vt 0.98030 0.90866
vt 0.98633 0.90866
vt 0.98030 0.86382
vt 0.98633 0.86382
vt 0.96122 0.11966
vt 0.90877 0.07697
vt 0.94388 0.12529
vt 0.91948 0.06222
vt 0.65923 0.44652
vt 0.68591 0.54198
vt 0.96122 0.19066
vt 0.94388 0.18503
vt 0.76362 0.60352
vt 0.91948 0.24810
vt 0.90877 0.23335
vt 0.86265 0.60764
vt 0.85196 0.27004
vt 0.85196 0.25181
vt 0.94519 0.55276
vt 0.78443 0.24810
vt 0.79515 0.23335
vt 0.97971 0.45985
vt 0.74270 0.19066
vt 0.76004 0.18503
vt 0.95302 0.36439
vt 0.74270 0.11966
vt 0.76004 0.12529
vt 0.87532 0.30285
vt 0.78443 0.06222
vt 0.79515 0.07697
vt 0.77629 0.29873
vt 0.85196 0.04028
vt 0.85196 0.05851
vt 0.69375 0.35361
vt 0.78443 0.06222
vt 0.87532 0.30285
vt 0.78443 0.24810
vt 0.65923 0.44652
vt 0.90685 0.97810
vt 0.90865 0.95727
vt 0.89885 0.97016
vt 0.97102 0.96991
vt 0.89841 0.84148
vt 0.88896 0.95734
vt 0.82668 0.97040
vt 0.89091 0.97816
# 119 texture vertices

vn -0.87314 0.00000 -0.48747
vn -0.41985 0.00000 -0.90759
vn -0.74852 0.00000 -0.66311
vn -0.21580 0.00000 -0.97644
vn 0.19380 0.00000 -0.98104
vn 0.39935 0.00000 -0.91680
vn 0.73343 0.00000 -0.67977
vn 0.86196 0.00000 -0.50697
vn 0.99291 0.00000 -0.11884
vn 0.99533 0.00000 0.09650
vn 0.87314 0.00000 0.48747
vn 0.74852 0.00000 0.66311
vn 0.41985 0.00000 0.90759
vn 0.21580 -0.00000 0.97644
vn -0.19380 -0.00000 0.98104
vn -0.39935 -0.00000 0.91680
vn -0.73343 -0.00000 0.67977
vn -0.86196 0.00000 0.50697
vn -0.99291 0.00000 0.11884
vn -0.99533 0.00000 -0.09650
vn -0.04456 0.99435 -0.09634
vn -0.09268 0.99435 -0.05174
vn -0.00000 1.00000 -0.00000
vn 0.02057 0.99435 -0.10413
vn 0.07785 0.99435 -0.07215
vn 0.10539 0.99435 -0.01261
vn 0.09268 0.99435 0.05174
vn 0.04457 0.99435 0.09634
vn -0.02057 0.99435 0.10413
vn -0.07785 0.99435 0.07215
vn -0.10539 0.99435 0.01261
vn -0.07945 -0.99435 -0.07039
vn -0.02291 -0.99435 -0.10365
vn 0.00000 -1.00000 0.00000
vn 0.04239 -0.99435 -0.09732
vn 0.09149 -0.99435 -0.05381
vn 0.10565 -0.99435 0.01024
vn 0.07945 -0.99435 0.07039
vn 0.02291 -0.99435 0.10364
vn -0.04239 -0.99435 0.09731
vn -0.09149 -0.99435 0.05381
vn -0.10565 -0.99435 -0.01024
vn -0.21579 0.00000 -0.97644
vn -0.74852 0.00000 -0.66311
vn -0.41985 0.00000 -0.90759
vn -0.87314 0.00000 -0.48748
vn 0.39935 0.00000 -0.91680
vn 0.19380 0.00000 -0.98104
vn 0.86196 0.00000 -0.50698
vn 0.73343 0.00000 -0.67977
vn 0.99533 0.00000 0.09650
vn 0.99291 0.00000 -0.11884
vn 0.74852 -0.00000 0.66311
vn 0.87314 0.00000 0.48747
vn 0.21580 -0.00000 0.97644
vn 0.41985 -0.00000 0.90759
vn -0.39935 0.00000 0.91680
vn -0.19380 -0.00000 0.98104
vn -0.86196 0.00000 0.50697
vn -0.73343 0.00000 0.67976
vn -0.99533 0.00000 -0.09650
vn -0.99291 0.00000 0.11884
vn -0.87314 0.00000 -0.48748
vn -0.74852 0.00000 -0.66311
vn 0.99291 0.00000 -0.11884
vn 0.99533 0.00000 0.09650
vn 0.87314 0.00000 0.48747
vn 0.74852 0.00000 0.66311
vn 0.41985 0.00000 0.90759
vn 0.21580 0.00000 0.97644
vn -0.19380 0.00000 0.98104
vn -0.39935 0.00000 0.91680
vn -0.73343 0.00000 0.67976
vn -0.86196 0.00000 0.50697
vn -0.99291 0.00000 0.11884
vn -0.99533 0.00000 -0.09650
vn 0.00000 -1.00000 0.00000
vn -0.03133 -0.99940 0.01487
vn -0.06305 -0.99800 -0.00498
vn -0.12585 -0.99200 -0.00993
vn -0.13435 -0.00000 -0.99093
vn -0.00000 1.00000 0.00000
vn -0.03133 0.99940 0.01487
vn 0.99729 0.00000 0.07353
vn 0.21297 0.00000 0.97706
vn 0.06292 -0.99800 -0.00639
vn 0.06292 0.99800 -0.00639
vn -0.07404 -0.98433 -0.16005
vn -0.13200 -0.98433 -0.11693
vn -0.03805 -0.98433 -0.17219
vn -0.15397 -0.98433 -0.08596
vn -0.13200 0.98433 -0.11693
vn -0.03805 0.98433 -0.17219
vn 0.03418 -0.98433 -0.17300
vn 0.07042 -0.98433 -0.16167
vn 0.07042 0.98433 -0.16167
vn 0.12934 -0.98433 -0.11987
vn 0.15200 -0.98433 -0.08940
vn 0.15200 0.98433 -0.08940
vn 0.17509 -0.98433 -0.02096
vn 0.17552 -0.98433 0.01702
vn 0.17552 0.98433 0.01702
vn 0.15397 -0.98433 0.08596
vn 0.13200 -0.98433 0.11693
vn 0.13200 0.98433 0.11693
vn 0.07404 -0.98433 0.16005
vn 0.03806 -0.98433 0.17219
vn 0.03805 0.98433 0.17219
vn -0.03418 -0.98433 0.17300
vn -0.07042 -0.98433 0.16167
vn -0.07042 0.98433 0.16167
vn -0.12934 -0.98433 0.11987
vn -0.15200 -0.98433 0.08940
vn -0.15200 0.98433 0.08940
vn -0.17509 -0.98433 0.02096
vn -0.17552 -0.98433 -0.01702
vn -0.17552 0.98433 -0.01702
vn -0.07404 0.98433 -0.16005
vn -0.15397 0.98433 -0.08596
vn -0.07404 -0.98433 -0.16005
vn -0.15397 -0.98433 -0.08596
vn 0.03418 0.98433 -0.17300
vn 0.07042 0.98433 -0.16167
vn 0.03418 -0.98433 -0.17300
vn 0.12934 0.98433 -0.11987
vn 0.15200 0.98433 -0.08940
vn 0.12934 -0.98433 -0.11987
vn 0.17509 0.98433 -0.02096
vn 0.17552 0.98433 0.01702
vn 0.17509 -0.98433 -0.02096
vn 0.15397 0.98433 0.08596
vn 0.13200 0.98433 0.11693
vn 0.15397 -0.98433 0.08596
vn 0.07404 0.98433 0.16005
vn 0.03805 0.98433 0.17219
vn 0.07404 -0.98433 0.16005
vn -0.03418 0.98433 0.17300
vn -0.07042 0.98433 0.16167
vn -0.03418 -0.98433 0.17300
vn -0.12934 0.98433 0.11987
vn -0.15200 0.98433 0.08940
vn -0.12934 -0.98433 0.11987
vn -0.17509 0.98433 0.02096
vn -0.17509 -0.98433 0.02096
vn -0.06305 0.99800 -0.00498
vn -0.12585 0.99200 -0.00993
vn -0.19096 -0.00000 0.98160
vn 0.03166 -0.99940 0.01416
vn 0.12560 -0.99200 -0.01276
vn 0.00078 -0.99760 0.06929
vn -0.99539 -0.00000 0.09592
vn 0.03166 0.99940 0.01416
vn 0.00078 0.99760 0.06929
vn 0.12559 0.99200 -0.01276
vn 0.11204 0.00000 -0.99370
# 155 normal vertices

g model
usemtl lambert3SG
f 1/3/1 2/2/2 3/1/3
f 3/1/3 2/2/2 4/4/4
f 2/2/2 5/5/5 4/4/4
f 4/4/4 5/5/5 6/6/6
f 5/9/5 7/8/7 6/7/6
f 6/7/6 7/8/7 8/10/8
f 7/8/7 9/11/9 8/10/8
f 8/10/8 9/11/9 10/12/10
f 9/11/9 11/13/11 10/12/10
f 10/12/10 11/13/11 12/14/12
f 11/13/11 13/15/13 12/14/12
f 12/14/12 13/15/13 14/16/14
f 13/15/13 15/17/15 14/16/14
f 14/16/14 15/17/15 16/18/16
f 15/17/15 17/19/17 16/18/16
f 16/18/16 17/19/17 18/20/18
f 17/19/17 19/21/19 18/20/18
f 18/20/18 19/21/19 20/22/20
f 19/21/19 1/3/1 20/22/20
f 20/22/20 1/3/1 3/1/3
f 21/25/21 22/24/22 23/23/23
f 24/26/24 21/25/21 23/23/23
f 25/27/25 24/26/24 23/23/23
f 26/28/26 25/27/25 23/23/23
f 27/29/27 26/28/26 23/23/23
f 28/30/28 27/29/27 23/23/23
f 29/31/29 28/30/28 23/23/23
f 30/32/30 29/31/29 23/23/23
f 31/33/31 30/32/30 23/23/23
f 22/24/22 31/33/31 23/23/23
f 32/33/32 33/32/33 34/23/34
f 33/32/33 35/31/35 34/23/34
f 35/31/35 36/30/36 34/23/34
f 36/30/36 37/29/37 34/23/34
f 37/29/37 38/28/38 34/23/34
f 38/28/38 39/27/39 34/23/34
f 39/27/39 40/26/40 34/23/34
f 40/26/40 41/25/41 34/23/34
f 41/25/41 42/24/42 34/23/34
f 42/24/42 32/33/32 34/23/34
f 43/36/43 44/35/44 45/34/45
f 45/34/45 44/35/44 46/37/46
f 47/39/47 43/36/43 48/38/48
f 48/38/48 43/36/43 45/34/45
f 49/41/49 47/39/47 50/40/50
f 50/40/50 47/39/47 48/38/48
f 51/43/51 49/41/49 52/42/52
f 52/42/52 49/41/49 50/40/50
f 53/45/53 51/43/51 54/44/54
f 54/44/54 51/43/51 52/42/52
f 55/47/55 53/45/53 56/46/56
f 56/46/56 53/45/53 54/44/54
f 57/50/57 55/49/55 58/48/58
f 58/48/58 55/49/55 56/51/56
f 59/53/59 57/50/57 60/52/60
f 60/52/60 57/50/57 58/48/58
f 61/55/61 59/53/59 62/54/62
f 62/54/62 59/53/59 60/52/60
f 44/35/44 61/55/61 46/37/46
f 46/37/46 61/55/61 62/54/62
f 63/58/63 64/57/45 65/56/64
f 65/56/64 64/57/45 66/59/43
f 64/57/45 67/60/48 66/59/43
f 66/59/43 67/60/48 68/61/47
f 67/60/48 69/62/50 68/61/47
f 68/61/47 69/62/50 70/63/49
f 69/62/50 71/64/65 70/63/49
f 70/63/49 71/64/65 72/65/66
f 71/64/65 73/66/67 72/65/66
f 72/65/66 73/66/67 74/67/68
f 73/66/67 75/68/69 74/67/68
f 74/67/68 75/68/69 76/69/70
f 75/72/69 77/71/71 76/70/70
f 76/70/70 77/71/71 78/73/72
f 77/71/71 79/74/73 78/73/72
f 78/73/72 79/74/73 80/75/74
f 79/74/73 81/76/75 80/75/74
f 80/75/74 81/76/75 82/77/76
f 81/76/75 63/58/63 82/77/76
f 82/77/76 63/58/63 65/56/64
f 2/80/90 1/79/89 43/78/88
f 43/78/88 1/79/89 44/81/91
f 22/24/22 21/25/21 46/82/92
f 46/82/92 21/25/21 45/83/93
f 5/85/95 2/80/90 47/84/94
f 47/84/94 2/80/90 43/78/88
f 21/25/21 24/26/24 45/83/93
f 45/83/93 24/26/24 48/86/96
f 7/88/98 5/85/95 49/87/97
f 49/87/97 5/85/95 47/84/94
f 24/26/24 25/27/25 48/86/96
f 48/86/96 25/27/25 50/89/99
f 9/91/101 7/88/98 51/90/100
f 51/90/100 7/88/98 49/87/97
f 25/27/25 26/28/26 50/89/99
f 50/89/99 26/28/26 52/92/102
f 11/94/104 9/91/101 53/93/103
f 53/93/103 9/91/101 51/90/100
f 26/28/26 27/29/27 52/92/102
f 52/92/102 27/29/27 54/95/105
f 13/97/107 11/94/104 55/96/106
f 55/96/106 11/94/104 53/93/103
f 27/29/27 28/30/28 54/95/105
f 54/95/105 28/30/28 56/98/108
f 15/100/110 13/97/107 57/99/109
f 57/99/109 13/97/107 55/96/106
f 28/30/28 29/31/29 56/98/108
f 56/98/108 29/31/29 58/101/111
f 17/103/113 15/100/110 59/102/112
f 59/102/112 15/100/110 57/99/109
f 29/31/29 30/32/30 58/101/111
f 58/101/111 30/32/30 60/104/114
f 19/106/116 17/103/113 61/105/115
f 61/105/115 17/103/113 59/102/112
f 30/32/30 31/33/31 60/104/114
f 60/104/114 31/33/31 62/107/117
f 1/79/89 19/106/116 44/81/91
f 44/81/91 19/106/116 61/105/115
f 31/33/31 22/24/22 62/107/117
f 62/107/117 22/24/22 46/82/92
f 3/106/119 4/103/118 63/105/92
f 63/105/92 4/103/118 64/108/93
f 33/32/33 32/33/32 66/104/120
f 66/104/120 32/33/32 65/107/121
f 4/103/118 6/100/122 64/108/93
f 64/108/93 6/100/122 67/99/123
f 35/31/35 33/32/33 68/109/124
f 68/109/124 33/32/33 66/104/120
f 6/100/122 8/97/125 67/99/123
f 67/99/123 8/97/125 69/96/126
f 36/30/36 35/31/35 70/98/127
f 70/98/127 35/31/35 68/109/124
f 8/97/125 10/94/128 69/96/126
f 69/96/126 10/94/128 71/110/129
f 37/29/37 36/30/36 72/95/130
f 72/95/130 36/30/36 70/98/127
f 10/94/128 12/91/131 71/110/129
f 71/110/129 12/91/131 73/90/132
f 38/28/38 37/29/37 74/92/133
f 74/92/133 37/29/37 72/95/130
f 12/91/131 14/88/134 73/90/132
f 73/90/132 14/88/134 75/87/135
f 39/27/39 38/28/38 76/89/136
f 76/89/136 38/28/38 74/92/133
f 14/88/134 16/85/137 75/87/135
f 75/87/135 16/85/137 77/84/138
f 40/26/40 39/27/39 78/86/139
f 78/86/139 39/27/39 76/89/136
f 16/85/137 18/80/140 77/84/138
f 77/84/138 18/80/140 79/78/141
f 41/25/41 40/26/40 80/83/142
f 80/83/142 40/26/40 78/86/139
f 18/80/140 20/79/143 79/78/141
f 79/78/141 20/79/143 81/81/117
f 42/24/42 41/25/41 82/111/144
f 82/111/144 41/25/41 80/83/142
f 20/79/143 3/106/119 81/81/117
f 81/81/117 3/106/119 63/105/92
f 32/33/32 42/24/42 65/107/121
f 65/107/121 42/24/42 82/111/144
f 83/114/77 84/113/78 85/112/79
f 85/112/79 84/113/78 86/115/80
f 87/112/81 85/112/81 86/115/81
f 88/114/82 87/112/145 89/113/83
f 89/113/83 87/112/145 86/115/146
f 92/117/84 91/117/84 90/116/84
f 84/113/147 89/113/147 86/115/147
f 91/117/85 92/117/85 93/118/85
f 83/114/77 94/119/86 92/117/148
f 93/118/149 92/117/148 94/119/86
f 83/114/77 92/117/148 84/113/78
f 84/113/78 92/117/148 90/116/150
f 90/116/151 89/113/151 84/113/151
f 88/114/82 89/113/83 91/117/152
f 91/117/152 89/113/83 90/116/153
f 88/114/82 91/117/152 95/119/87
f 95/119/87 91/117/152 93/118/154
f 93/118/155 94/119/155 95/119/155
# 178 elements

