# Created by Metasequoia

mtllib treasure_chest_item.mtl

v -0.060035 1.236645 0.306414
v 0.045929 1.236645 0.306414
v 0.045929 1.356284 0.306414
v -0.060035 1.356284 0.306414
v 0.045929 1.356284 0.260128
v -0.060035 1.356284 0.260128
v -0.060035 1.236645 0.260128
v 0.045929 1.236645 0.260128
v -0.401165 0.996086 0.280604
v -0.346973 0.996086 0.280604
v -0.346973 1.328772 0.280604
v -0.401165 1.328772 0.280604
v -0.401165 1.328772 0.227291
v -0.346973 1.328772 0.227291
v -0.346973 0.996086 0.227291
v -0.401165 0.996086 0.227291
v 0.332889 0.985659 -0.298259
v 0.332889 1.032626 -0.298259
v -0.346973 1.032626 -0.298259
v -0.346973 0.985659 -0.298259
v -0.346973 0.985659 -0.351572
v -0.346973 1.032626 -0.351572
v 0.332889 1.032626 -0.351572
v 0.332889 0.985659 -0.351572
v -0.401105 0.996086 -0.298946
v -0.346913 0.996086 -0.298946
v -0.346913 1.328772 -0.298946
v -0.401105 1.328772 -0.298946
v -0.401105 1.328772 -0.352259
v -0.346913 1.328772 -0.352259
v -0.346913 0.996086 -0.352259
v -0.401105 0.996086 -0.352259
v 0.290212 0.976196 -0.366094
v 0.399381 0.976196 -0.366094
v 0.399381 1.085365 -0.366094
v 0.349157 1.085365 -0.366094
v 0.290212 1.026419 -0.366094
v 0.290212 0.976196 -0.256926
v 0.399381 0.976196 -0.256926
v 0.399381 1.026419 -0.256926
v 0.399381 1.085365 -0.315871
v 0.349157 1.085365 -0.315871
v 0.290212 1.026419 -0.256926
v 0.290212 0.976196 0.293873
v 0.399381 0.976196 0.293873
v 0.399381 1.085365 0.293873
v 0.349157 1.085365 0.293873
v 0.290212 1.026419 0.293873
v 0.290212 0.976196 0.184705
v 0.399381 0.976196 0.184705
v 0.399381 1.026419 0.184705
v 0.399381 1.085365 0.243650
v 0.349157 1.085365 0.243650
v 0.290212 1.026419 0.184705
v -0.304318 0.976196 0.293873
v -0.413486 0.976196 0.293873
v -0.413486 1.085365 0.293873
v -0.363263 1.085365 0.293873
v -0.304318 1.026419 0.293873
v -0.304318 0.976196 0.184705
v -0.413486 0.976196 0.184705
v -0.413486 1.026419 0.184705
v -0.413486 1.085365 0.243650
v -0.363263 1.085365 0.243650
v -0.304318 1.026419 0.184705
v -0.304318 0.976196 -0.366094
v -0.413486 0.976196 -0.366094
v -0.413486 1.085365 -0.366094
v -0.363263 1.085365 -0.366094
v -0.304318 1.026419 -0.366094
v -0.304318 0.976196 -0.256926
v -0.413486 0.976196 -0.256926
v -0.413486 1.026419 -0.256926
v -0.413486 1.085365 -0.315871
v -0.363263 1.085365 -0.315871
v -0.304318 1.026419 -0.256926
v 0.332889 0.996086 -0.298946
v 0.387082 0.996086 -0.298946
v 0.387082 1.328772 -0.298946
v 0.332889 1.328772 -0.298946
v 0.332889 1.328772 -0.352259
v 0.387082 1.328772 -0.352259
v 0.387082 0.996086 -0.352259
v 0.332889 0.996086 -0.352259
v -0.007053 1.503524 -0.290098
v -0.007053 1.503524 -0.036110
v 0.311951 1.503524 -0.036110
v 0.311951 1.503524 -0.290098
v 0.381836 0.988193 -0.036110
v -0.007053 0.988193 -0.036110
v -0.007053 0.988193 -0.345740
v 0.381836 0.988193 -0.345740
v -0.387963 1.307807 -0.036110
v -0.387963 1.324676 -0.036110
v -0.387963 1.324676 -0.337761
v -0.387963 1.307807 -0.337761
v -0.007053 1.324676 0.265540
v -0.007053 1.307807 0.265540
v 0.373857 1.307807 0.265540
v 0.373857 1.324676 0.265540
v 0.373857 1.324676 -0.036110
v 0.373857 1.307807 -0.036110
v 0.373857 1.307807 -0.337761
v 0.373857 1.324676 -0.337761
v -0.007053 1.307807 -0.337761
v -0.007053 1.324676 -0.337761
v -0.007053 1.503524 0.217877
v -0.007053 1.439231 0.278536
v 0.388138 1.439231 0.278536
v 0.311951 1.503524 0.217877
v 0.388138 1.439231 -0.350757
v -0.007053 1.439231 -0.350757
v 0.388138 1.439231 -0.036110
v -0.402243 1.439231 -0.350757
v -0.402243 1.439231 -0.036110
v -0.326056 1.503524 -0.036110
v -0.326056 1.503524 -0.290098
v -0.007053 1.307807 0.273519
v -0.007053 0.988193 0.273519
v 0.381836 0.988193 0.273519
v 0.381836 1.307807 0.273519
v 0.381836 1.307807 -0.036110
v 0.381836 1.307807 -0.345740
v -0.007053 1.307807 -0.345740
v -0.395942 0.988193 -0.345740
v -0.395942 0.988193 -0.036110
v -0.395942 1.307807 -0.036110
v -0.395942 1.307807 -0.345740
v -0.421335 1.321075 -0.036110
v -0.421335 1.321075 -0.365958
v 0.407229 1.321075 0.293737
v -0.007053 1.321075 0.293737
v 0.407229 1.321075 -0.365958
v 0.407229 1.321075 -0.036110
v -0.007053 1.321075 -0.365958
v -0.402243 1.439231 0.278536
v -0.326056 1.503524 0.217877
v -0.421335 1.321075 0.293737
v -0.387963 1.324676 0.265540
v -0.387963 1.307807 0.265540
v -0.395942 1.307807 0.273519
v -0.395942 0.988193 0.273519
v 0.332889 0.996086 0.280604
v 0.387082 0.996086 0.280604
v 0.387082 1.328772 0.280604
v 0.332889 1.328772 0.280604
v 0.332889 1.328772 0.227291
v 0.387082 1.328772 0.227291
v 0.387082 0.996086 0.227291
v 0.332889 0.996086 0.227291
v 0.332889 0.985659 0.280604
v 0.332889 1.032626 0.280604
v -0.346973 1.032626 0.280604
v -0.346973 0.985659 0.280604
v -0.346973 0.985659 0.227291
v -0.346973 1.032626 0.227291
v 0.332889 1.032626 0.227291
v 0.332889 0.985659 0.227291
# 158 vertices

vt 0.05095 0.58588
vt 0.20307 0.58588
vt 0.20307 0.41412
vt 0.05095 0.41412
vt 0.59161 0.63281
vt 0.53960 0.63281
vt 0.53960 0.95208
vt 0.59161 0.95208
vt 0.64277 0.95208
vt 0.69477 0.95208
vt 0.69477 0.63281
vt 0.64277 0.63281
vt 0.48844 0.63281
vt 0.48844 0.95208
vt 0.62153 0.47782
vt 0.65604 0.47782
vt 0.65604 0.04492
vt 0.62153 0.04492
vt 0.58758 0.04492
vt 0.55308 0.04492
vt 0.55308 0.47782
vt 0.58758 0.47782
vt 0.68998 0.47782
vt 0.68998 0.04492
vt 0.65704 0.47782
vt 0.69099 0.47782
vt 0.69099 0.04492
vt 0.65704 0.04492
vt 0.08323 0.36475
vt 0.04004 0.32155
vt 0.08323 0.32155
vt 0.04004 0.34142
vt 0.06336 0.36475
vt 0.06235 0.32303
vt 0.10175 0.32303
vt 0.10175 0.36244
vt 0.06235 0.36244
vt 0.12642 0.34142
vt 0.12642 0.32155
vt 0.10310 0.36475
vt 0.19294 0.36475
vt 0.16962 0.34142
vt 0.21281 0.34142
vt 0.21281 0.36475
vt 0.19294 0.38462
vt 0.16962 0.38462
vt 0.21281 0.38462
vt 0.16962 0.32155
vt 0.21281 0.32155
vt 0.36063 0.97173
vt 0.36063 0.84046
vt 0.19947 0.84046
vt 0.19947 0.97173
vt 0.50783 0.04756
vt 0.41067 0.04756
vt 0.41067 0.14472
vt 0.50783 0.14472
vt 0.92550 0.69159
vt 0.93296 0.69159
vt 0.93296 0.59067
vt 0.92550 0.59067
vt 0.93296 0.28683
vt 0.92550 0.28683
vt 0.92550 0.38829
vt 0.93296 0.38829
vt 0.93296 0.08499
vt 0.92550 0.08499
vt 0.92550 0.18591
vt 0.93296 0.18591
vt 0.93296 0.79305
vt 0.92550 0.79305
vt 0.92550 0.89451
vt 0.93296 0.89451
vt 0.94927 0.69859
vt 0.90637 0.69859
vt 0.90637 0.80634
vt 0.94927 0.80634
vt 0.94927 0.48308
vt 0.94927 0.37533
vt 0.90637 0.37533
vt 0.90637 0.48308
vt 0.90637 0.59084
vt 0.94927 0.59084
vt 0.94927 0.26758
vt 0.94927 0.15983
vt 0.90637 0.15983
vt 0.90637 0.26758
vt 0.83977 0.48382
vt 0.74400 0.48382
vt 0.74400 0.59539
vt 0.83977 0.59539
vt 0.83977 0.26068
vt 0.74400 0.26068
vt 0.74400 0.37225
vt 0.83977 0.37225
vt 0.83977 0.14911
vt 0.74400 0.14911
vt 0.83977 0.93011
vt 0.83977 0.81854
vt 0.74400 0.81854
vt 0.74400 0.93011
vt 0.09617 0.72791
vt 0.09391 0.72507
vt 0.09391 0.83536
vt 0.09617 0.83536
vt 0.09617 0.94280
vt 0.09391 0.94565
vt 0.31222 0.72791
vt 0.31449 0.72507
vt 0.20420 0.72507
vt 0.20420 0.72791
vt 0.31222 0.94280
vt 0.20420 0.94280
vt 0.20420 0.94565
vt 0.31449 0.94565
vt 0.31449 0.83536
vt 0.31222 0.83536
vt 0.31352 0.14472
vt 0.31352 0.04756
vt 0.74400 0.03754
vt 0.83977 0.03754
vt 0.03831 0.97173
vt 0.03831 0.84046
vt 0.94927 0.91410
vt 0.90637 0.91410
vt 0.92550 0.48975
vt 0.93296 0.48975
vt 0.83977 0.70697
vt 0.74400 0.70697
vt 0.19947 0.70919
vt 0.03831 0.70919
vt 0.36063 0.70919
vt 0.50783 0.24187
vt 0.41067 0.24187
vt 0.31352 0.24187
vt 0.94927 0.05207
vt 0.90637 0.05207
vt 0.86348 0.59084
vt 0.86348 0.69859
vt 0.86348 0.48308
vt 0.86348 0.37533
vt 0.86348 0.26758
vt 0.86348 0.15983
vt 0.86348 0.05207
vt 0.86348 0.80634
vt 0.86348 0.91410
vt 0.62198 0.47782
vt 0.65592 0.47782
vt 0.65592 0.04492
vt 0.62198 0.04492
# 150 texture vertices

vn 0.00000 0.00000 1.00000
vn 0.00000 1.00000 0.00000
vn 0.00000 -1.00000 0.00000
vn 0.00000 0.00000 -1.00000
vn 0.00000 0.00000 -1.00000
vn 0.00000 -1.00000 0.00000
vn 1.00000 0.00000 0.00000
vn -0.50546 0.86285 0.00000
vn -0.96754 0.25272 0.00000
vn 0.00000 0.00000 1.00000
vn -1.00000 0.00000 0.00000
vn 0.50546 0.86285 0.00000
vn 0.96754 0.25272 0.00000
vn 0.00000 0.91822 -0.39607
vn 0.34334 0.93921 0.00000
vn 0.24464 0.92953 -0.27591
vn -1.00000 -0.00000 -0.00000
vn 1.00000 0.00000 0.00000
vn 0.00000 0.94886 0.31569
vn 0.00000 0.52271 0.85251
vn 0.19739 0.52206 0.82975
vn 0.24464 0.92953 0.27591
vn 0.19739 0.52206 -0.82975
vn 0.00000 0.52271 -0.85251
vn 0.80334 0.59552 0.00000
vn -0.19739 0.52206 -0.82975
vn -0.80334 0.59552 0.00000
vn -0.27394 0.96175 0.00000
vn -0.24464 0.92953 -0.27591
vn 0.10728 -0.99423 0.00000
vn 0.05382 -0.99653 0.06356
vn -0.05382 -0.99653 -0.06356
vn 0.00000 -0.99194 -0.12667
vn -0.05382 -0.99653 0.06356
vn -0.10728 -0.99423 0.00000
vn 0.00000 -0.99194 0.12667
vn -0.19739 0.52206 0.82975
vn -0.29593 0.89500 0.33376
vn 0.05382 -0.99653 -0.06356
vn 0.05382 -0.99653 -0.06356
vn -0.86286 0.50544 0.00000
vn -0.25273 0.96754 0.00000
vn 0.00000 0.70710 0.70711
vn 0.00000 0.96754 0.25273
vn 0.00000 0.38268 0.92388
vn 0.00000 0.38268 0.92388
vn 0.00000 0.38268 -0.92388
vn 0.00000 0.96754 -0.25273
vn 0.00000 0.70710 -0.70711
vn 0.00000 0.38268 -0.92388
vn 0.86286 0.50544 0.00000
vn 0.25273 0.96754 0.00000
vn 0.00000 0.38268 -0.92388
vn 0.00000 0.38268 -0.92388
vn 0.00000 1.00000 0.00000
vn 0.00000 0.38268 0.92388
vn 0.00000 0.38268 0.92388
vn 0.10728 -0.99423 0.00000
vn -0.05382 -0.99653 -0.06356
vn 0.00000 -0.99194 -0.12667
vn -0.10728 -0.99423 0.00000
vn 0.98720 0.15951 0.00000
vn 0.98720 0.15951 0.00000
vn 0.98720 0.15951 0.00000
vn 0.00000 0.12760 -0.99183
vn 0.00000 0.12760 -0.99183
vn -0.98720 0.15951 0.00000
vn -0.98720 0.15951 0.00000
vn -0.98720 0.15951 0.00000
vn -0.98720 0.15951 0.00000
vn -0.98720 0.15951 0.00000
vn 0.00000 0.12760 0.99183
# 72 normal vertices

g model
usemtl lambert3SG
f 2/3/1 3/2/1 4/1/1
f 1/4/1 2/3/1 4/1/1
f 3/2/2 5/2/2 6/1/2
f 4/1/2 3/2/2 6/1/2
f 8/3/3 2/3/3 1/4/3
f 7/4/3 8/3/3 1/4/3
f 8/3/7 5/2/7 3/2/7
f 2/3/7 8/3/7 3/2/7
f 1/4/11 4/1/11 6/1/11
f 7/4/11 1/4/11 6/1/11
f 10/7/1 11/6/1 12/5/1
f 9/8/1 10/7/1 12/5/1
f 14/11/4 15/10/4 16/9/4
f 13/12/4 14/11/4 16/9/4
f 15/14/7 14/13/7 11/6/7
f 10/7/7 15/14/7 11/6/7
f 9/8/11 12/5/11 13/12/11
f 16/9/11 9/8/11 13/12/11
f 18/17/1 19/16/1 20/15/1
f 17/18/1 18/17/1 20/15/1
f 22/21/4 23/20/4 24/19/4
f 21/22/4 22/21/4 24/19/4
f 23/24/2 22/23/2 19/16/2
f 18/17/2 23/24/2 19/16/2
f 17/27/3 20/26/3 21/25/3
f 24/28/3 17/27/3 21/25/3
f 26/7/1 27/6/1 28/5/1
f 25/8/1 26/7/1 28/5/1
f 30/11/4 31/10/4 32/9/4
f 29/12/4 30/11/4 32/9/4
f 31/14/7 30/13/7 27/6/7
f 26/7/7 31/14/7 27/6/7
f 25/8/11 28/5/11 29/12/11
f 32/9/11 25/8/11 29/12/11
f 34/31/4 33/30/4 35/29/4
f 33/30/4 37/32/4 35/29/4
f 37/32/4 36/33/5 35/29/4
f 33/36/3 34/35/6 39/34/3
f 33/36/3 39/34/3 38/37/6
f 39/39/7 34/31/7 40/38/7
f 34/31/7 35/29/7 40/38/7
f 35/29/7 41/40/7 40/38/7
f 37/43/41 43/42/9 42/41/8
f 37/43/41 42/41/8 36/44/42
f 40/46/45 41/45/44 42/41/43
f 40/46/45 42/41/43 43/42/46
f 41/45/44 35/47/2 36/44/42
f 41/45/44 36/44/42 42/41/8
f 38/48/1 39/39/1 40/38/45
f 38/48/1 40/38/45 43/42/46
f 43/42/9 37/43/41 33/49/11
f 43/42/9 33/49/11 38/48/11
f 46/29/1 44/30/1 45/31/1
f 46/29/1 48/32/1 44/30/1
f 46/29/1 47/33/10 48/32/1
f 50/34/3 45/35/6 44/36/3
f 49/37/6 50/34/3 44/36/3
f 51/38/7 45/31/7 50/39/7
f 51/38/7 46/29/7 45/31/7
f 51/38/7 52/40/7 46/29/7
f 53/41/8 54/42/9 48/43/41
f 47/44/42 53/41/8 48/43/41
f 53/41/49 52/45/48 51/46/47
f 54/42/50 53/41/49 51/46/47
f 47/44/42 46/47/2 52/45/48
f 53/41/8 47/44/42 52/45/48
f 51/38/47 50/39/4 49/48/4
f 54/42/50 51/38/47 49/48/4
f 44/49/11 48/43/41 54/42/9
f 49/48/11 44/49/11 54/42/9
f 56/31/10 55/30/1 57/29/1
f 55/30/1 59/32/1 57/29/1
f 59/32/1 58/33/1 57/29/1
f 55/36/3 56/35/3 61/34/3
f 55/36/3 61/34/3 60/37/3
f 61/39/11 56/31/11 62/38/11
f 56/31/11 57/29/11 62/38/11
f 57/29/11 63/40/11 62/38/11
f 59/43/51 65/42/13 64/41/12
f 59/43/51 64/41/12 58/44/52
f 62/46/53 63/45/48 64/41/49
f 62/46/53 64/41/49 65/42/54
f 63/45/48 57/47/55 58/44/52
f 63/45/48 58/44/52 64/41/12
f 60/48/4 61/39/4 62/38/53
f 60/48/4 62/38/53 65/42/54
f 65/42/13 59/43/51 55/49/7
f 65/42/13 55/49/7 60/48/7
f 68/29/4 66/30/4 67/31/5
f 68/29/4 70/32/4 66/30/4
f 68/29/4 69/33/4 70/32/4
f 72/34/3 67/35/3 66/36/3
f 71/37/3 72/34/3 66/36/3
f 73/38/11 67/31/11 72/39/11
f 73/38/11 68/29/11 67/31/11
f 73/38/11 74/40/11 68/29/11
f 75/41/12 76/42/13 70/43/51
f 69/44/52 75/41/12 70/43/51
f 75/41/43 74/45/44 73/46/56
f 76/42/57 75/41/43 73/46/56
f 69/44/52 68/47/55 74/45/44
f 75/41/12 69/44/52 74/45/44
f 73/38/56 72/39/1 71/48/1
f 76/42/57 73/38/56 71/48/1
f 66/49/7 70/43/51 76/42/13
f 71/48/7 66/49/7 76/42/13
f 78/7/1 79/6/1 80/5/1
f 77/8/1 78/7/1 80/5/1
f 82/11/4 83/10/4 84/9/4
f 81/12/4 82/11/4 84/9/4
f 83/14/7 82/13/7 79/6/7
f 78/7/7 83/14/7 79/6/7
f 77/8/11 80/5/11 81/12/11
f 84/9/11 77/8/11 81/12/11
f 86/52/2 87/51/15 88/50/16
f 85/53/14 86/52/2 88/50/16
f 90/56/3 91/55/3 92/54/3
f 89/57/3 90/56/3 92/54/3
f 94/60/11 95/59/17 96/58/11
f 93/61/11 94/60/11 96/58/11
f 98/64/1 99/63/10 100/62/1
f 97/65/1 98/64/1 100/62/1
f 102/68/7 103/67/18 104/66/7
f 101/69/7 102/68/7 104/66/7
f 103/72/4 105/71/4 106/70/4
f 104/73/5 103/72/4 106/70/4
f 108/76/20 109/75/21 110/74/22
f 107/77/19 108/76/20 110/74/22
f 112/80/24 85/79/14 88/78/16
f 111/81/23 112/80/24 88/78/16
f 113/82/25 111/81/23 88/78/16
f 87/83/15 113/82/25 88/78/16
f 115/86/27 116/85/28 117/84/29
f 114/87/26 115/86/27 117/84/29
f 119/90/1 120/89/1 121/88/1
f 118/91/1 119/90/1 121/88/1
f 89/94/7 92/93/7 123/92/7
f 122/95/7 89/94/7 123/92/7
f 124/96/4 123/92/4 92/93/4
f 91/97/4 124/96/4 92/93/4
f 126/100/11 127/99/11 128/98/11
f 125/101/11 126/100/11 128/98/11
f 129/104/30 130/103/31 95/102/31
f 94/105/58 129/104/30 95/102/31
f 127/104/2 93/105/2 96/106/2
f 128/107/2 127/104/2 96/106/2
f 118/110/2 121/109/2 99/108/2
f 98/111/2 118/110/2 99/108/2
f 132/114/33 97/113/60 100/112/59
f 131/115/32 132/114/33 100/112/59
f 122/116/2 123/115/2 103/112/2
f 102/117/2 122/116/2 103/112/2
f 134/116/35 101/117/61 104/108/34
f 133/109/34 134/116/35 104/108/34
f 124/114/2 105/113/2 103/112/2
f 123/115/2 124/114/2 103/112/2
f 135/110/36 133/109/34 104/108/34
f 106/111/36 135/110/36 104/108/34
f 91/55/3 90/56/3 126/118/3
f 125/119/3 91/55/3 126/118/3
f 124/96/4 91/97/4 125/120/4
f 128/121/5 124/96/4 125/120/4
f 124/114/2 128/107/2 96/106/2
f 105/113/2 124/114/2 96/106/2
f 105/71/4 96/58/5 95/59/4
f 106/70/4 105/71/4 95/59/4
f 135/110/36 106/111/36 95/102/31
f 130/103/31 135/110/36 95/102/31
f 117/84/29 85/79/14 112/80/24
f 114/87/26 117/84/29 112/80/24
f 86/52/2 85/53/14 117/122/29
f 116/123/28 86/52/2 117/122/29
f 108/76/20 107/77/19 137/124/38
f 136/125/37 108/76/20 137/124/38
f 132/114/33 138/107/39 139/106/40
f 97/113/60 132/114/33 139/106/40
f 140/126/1 98/64/1 97/65/1
f 139/127/10 140/126/1 97/65/1
f 118/110/2 98/111/2 140/102/2
f 141/103/2 118/110/2 140/102/2
f 119/90/1 118/91/1 141/128/1
f 142/129/10 119/90/1 141/128/1
f 107/130/19 86/52/2 116/123/28
f 137/131/38 107/130/19 116/123/28
f 86/52/2 107/130/19 110/132/22
f 87/51/15 86/52/2 110/132/22
f 113/82/25 87/83/15 110/74/22
f 109/75/21 113/82/25 110/74/22
f 134/116/35 131/115/32 100/112/59
f 101/117/61 134/116/35 100/112/59
f 99/63/7 102/68/7 101/69/7
f 100/62/7 99/63/7 101/69/7
f 122/116/2 102/117/2 99/108/2
f 121/109/2 122/116/2 99/108/2
f 89/94/7 122/95/7 121/88/7
f 120/89/7 89/94/7 121/88/7
f 90/56/3 89/57/3 120/133/3
f 119/134/3 90/56/3 120/133/3
f 90/56/3 119/134/3 142/135/3
f 126/118/3 90/56/3 142/135/3
f 126/100/11 142/129/11 141/128/11
f 127/99/11 126/100/11 141/128/11
f 127/104/2 141/103/2 140/102/2
f 93/105/2 127/104/2 140/102/2
f 139/127/11 94/60/11 93/61/11
f 140/126/11 139/127/11 93/61/11
f 129/104/30 94/105/58 139/106/40
f 138/107/39 129/104/30 139/106/40
f 115/86/27 136/137/37 137/136/38
f 116/85/28 115/86/27 137/136/38
f 134/138/62 113/82/25 109/75/62
f 131/139/63 134/138/62 109/75/62
f 111/81/64 113/82/25 134/138/62
f 133/140/64 111/81/64 134/138/62
f 135/141/65 112/80/24 111/81/23
f 133/140/66 135/141/65 111/81/23
f 114/87/26 112/80/24 135/141/65
f 130/142/66 114/87/26 135/141/65
f 129/143/68 115/86/27 114/87/67
f 130/142/69 129/143/68 114/87/67
f 136/137/70 115/86/27 129/143/68
f 138/144/71 136/137/70 129/143/68
f 132/145/72 108/76/20 136/125/37
f 138/146/72 132/145/72 136/125/37
f 109/75/21 108/76/20 132/145/72
f 131/139/72 109/75/21 132/145/72
f 144/7/1 145/6/1 146/5/1
f 143/8/1 144/7/1 146/5/1
f 148/11/4 149/10/4 150/9/4
f 147/12/4 148/11/4 150/9/4
f 149/14/7 148/13/7 145/6/7
f 144/7/7 149/14/7 145/6/7
f 143/8/11 146/5/11 147/12/11
f 150/9/11 143/8/11 147/12/11
f 152/17/1 153/16/1 154/15/1
f 151/18/1 152/17/1 154/15/1
f 156/21/4 157/20/4 158/19/4
f 155/22/4 156/21/4 158/19/4
f 157/24/2 156/23/2 153/16/2
f 152/17/2 157/24/2 153/16/2
f 151/149/3 154/148/3 155/147/3
f 158/150/3 151/149/3 155/147/3
# 242 elements

