# Created by Metasequoia

v 0.074101 -1.020926 -40.508114
v 0.074105 -1.020926 -25.719833
v -1.404943 -0.575599 -25.719833
v -1.381521 -0.863756 -37.801418
v -1.505899 -0.575599 -40.508114
v -1.505899 0.798277 -40.508114
v -1.404943 0.798277 -25.719833
v -1.381647 1.086434 -29.228657
v -1.717966 0.339424 -40.508114
v -1.617004 0.339424 -25.809124
v -1.717966 -0.116746 -40.508114
v -1.617004 -0.116746 -25.809124
v 1.142126 -0.863756 -40.508114
v 1.654101 -0.575599 -40.508114
v 1.553158 -0.575599 -25.719833
v 1.866171 -0.116746 -40.508114
v 1.765219 -0.116746 -25.809124
v 1.765219 0.339424 -25.809124
v 1.866171 0.339424 -40.508114
v 0.074105 1.243604 -25.719833
v 0.074101 1.243604 -40.508114
v 1.553158 0.798277 -25.719833
v 1.142126 1.086434 -40.508114
v 1.654101 0.798277 -40.508114
v 0.074122 -0.361928 38.551922
v -2.124670 0.111339 38.551929
v -1.992765 0.111339 -22.021915
v 0.074111 -0.442121 -22.021915
v 0.074111 0.664799 -22.021915
v 0.074122 0.584606 38.551922
v -1.768383 0.111339 43.541126
v 0.074124 -0.313215 43.541119
v 0.074124 0.535893 43.541119
v 0.074124 -0.122030 46.711033
v -0.906508 0.111339 46.711033
v 0.074124 0.344708 46.711033
v 0.074124 0.111339 47.930164
v 2.140980 0.111339 -22.021915
v 2.272917 0.111339 38.551929
v 1.916626 0.111339 43.541126
v 1.054752 0.111339 46.711033
v 1.513052 -1.436605 -21.884731
v 1.513052 1.659283 -21.884731
v -1.299561 -1.436605 -21.884731
v -1.299561 1.659283 -21.884731
v 2.496308 1.659283 -23.955112
v 2.496310 1.659283 -21.812840
v 3.273372 1.337413 -21.718792
v 3.273370 1.337413 -24.325703
v 3.595237 0.560351 -21.679836
v 3.595235 0.560351 -24.479206
v -3.444990 0.560351 -21.679836
v -3.123119 1.337413 -21.717106
v -3.123119 1.337413 -24.321434
v -3.444990 0.560351 -24.479206
v -2.346057 1.659283 -21.807095
v -2.346057 1.659283 -23.940533
v -2.346057 -1.436605 -23.940533
v -2.346057 -1.436605 -21.807095
v -3.123119 -1.114735 -21.717106
v -3.123119 -1.114735 -24.321434
v -3.444990 -0.337673 -21.679836
v -3.444990 -0.337673 -24.479206
v 3.595237 -0.337673 -21.679836
v 3.273372 -1.114735 -21.718792
v 3.273370 -1.114735 -24.325703
v 3.595235 -0.337673 -24.479206
v 2.496310 -1.436605 -21.812840
v 2.496308 -1.436605 -23.955112
v -1.299561 1.659283 -24.751503
v -1.299561 -1.436605 -24.751503
v -1.675524 0.560351 -25.850430
v -1.675524 -0.337673 -25.850430
v 1.513052 1.659283 -24.751503
v 1.902268 0.560351 -25.850430
v 1.902268 -0.337673 -25.850430
v 1.513052 -1.436605 -24.751503
v 1.788270 1.337413 -25.687569
v -1.565409 1.337413 -25.687569
v 1.788270 -1.114735 -25.687569
v -1.565409 -1.114735 -25.687569
v -1.874676 0.328981 -42.426861
v -2.057201 0.624609 -40.508060
v -1.422234 1.263505 -40.508060
v -1.219128 0.981642 -42.426861
v -1.219128 -0.758964 -42.426861
v -1.422234 -1.040827 -40.508060
v -2.057201 -0.401931 -40.508060
v -1.874676 -0.106303 -42.426861
v 1.932261 -0.106303 -42.426861
v 2.114785 -0.401931 -40.508060
v 1.479822 -1.040827 -40.508060
v 1.276716 -0.758964 -42.426861
v -0.866633 0.981642 -46.096821
v 0.924217 0.981642 -46.096821
v 1.176088 0.345136 -46.733334
v -1.118505 0.345136 -46.733334
v 0.924217 -0.758964 -46.096821
v -0.866633 -0.758964 -46.096821
v -1.118505 -0.122458 -46.733334
v 1.176088 -0.122458 -46.733334
v 1.899266 0.981642 -43.604366
v 1.276716 0.981642 -42.426861
v 1.932261 0.328981 -42.426861
v 2.535914 0.345136 -43.520649
v 2.534302 0.345136 -45.540249
v 1.898055 0.981642 -45.383976
v -1.841681 0.981642 -43.604366
v -2.478324 0.345136 -43.520649
v -2.478324 -0.122458 -43.520649
v -1.841681 -0.758964 -43.604366
v 1.899266 -0.758964 -43.604366
v 2.535914 -0.122458 -43.520649
v 2.114785 0.624609 -40.508060
v 1.479822 1.263505 -40.508060
v -1.840471 0.981642 -45.383976
v -2.476718 -0.122458 -45.540249
v -2.476718 0.345136 -45.540249
v 1.898055 -0.758964 -45.383976
v -1.840471 -0.758964 -45.383976
v 2.534302 -0.122458 -45.540249
# 121 vertices

vt 0.41509 0.71086
vt 0.41320 0.98672
vt 0.41277 0.92127
vt 0.49377 0.98672
vt 0.49145 0.93623
vt 0.49189 0.71086
vt 0.44437 0.98672
vt 0.43482 0.98672
vt 0.43671 0.71086
vt 0.35802 0.98672
vt 0.35614 0.71086
vt 0.36569 0.71086
vt 0.04735 0.98304
vt 0.06090 0.96621
vt 0.04735 0.96621
vt 0.03381 0.96621
vt 0.15551 0.93023
vt 0.23998 0.93023
vt 0.30442 0.93638
vt 0.30442 0.85231
vt 0.09297 0.93638
vt 0.09297 0.85231
vt 0.25127 0.81112
vt 0.14382 0.81112
vt 0.27141 0.93256
vt 0.29475 0.93526
vt 0.12597 0.93239
vt 0.10264 0.93521
vt 0.14724 0.81602
vt 0.24796 0.81602
vt 0.46430 0.98672
vt 0.46430 0.71086
vt 0.31954 0.71086
vt 0.32810 0.71086
vt 0.32810 0.98506
vt 0.31954 0.98672
vt 0.34517 0.71086
vt 0.34517 0.98672
vt 0.33661 0.98506
vt 0.33661 0.71086
vt 0.50452 0.71086
vt 0.51308 0.71086
vt 0.51308 0.98506
vt 0.50452 0.98672
vt 0.52159 0.71086
vt 0.52159 0.98506
vt 0.38561 0.71086
vt 0.38561 0.98672
vt 0.53015 0.71086
vt 0.53015 0.98672
vt 0.04735 0.93269
vt 0.07336 0.93269
vt 0.07590 0.01696
vt 0.04735 0.01696
vt 0.06874 0.95093
vt 0.04735 0.95093
vt 0.01881 0.01696
vt 0.02135 0.93269
vt 0.02597 0.95093
vt 0.12597 0.86805
vt 0.10264 0.85692
vt 0.29475 0.85705
vt 0.27141 0.86849
vt 0.23998 0.84413
vt 0.15551 0.84413
vt 0.62306 0.28472
vt 0.75597 0.28135
vt 0.75230 0.24668
vt 0.62840 0.25005
vt 0.80244 0.31685
vt 0.80611 0.28218
vt 0.64161 0.28472
vt 0.63627 0.25005
vt 0.65954 0.28472
vt 0.75367 0.28218
vt 0.75734 0.31685
vt 0.66488 0.25005
vt 0.74593 0.18037
vt 0.71357 0.18037
vt 0.68564 0.32701
vt 0.68564 0.28555
vt 0.79607 0.38316
vt 0.67720 0.28555
vt 0.67720 0.32701
vt 0.76371 0.38316
vt 0.69595 0.21599
vt 0.70720 0.24668
vt 0.67275 0.25005
vt 0.67304 0.22088
vt 0.67304 0.17224
vt 0.69598 0.20277
vt 0.67304 0.20332
vt 0.76354 0.21599
vt 0.63656 0.22088
vt 0.62811 0.22088
vt 0.74609 0.34754
vt 0.81368 0.34754
vt 0.66459 0.22088
vt 0.67809 0.28472
vt 0.70353 0.28135
vt 0.76352 0.20277
vt 0.62811 0.20332
vt 0.62811 0.17224
vt 0.63656 0.17224
vt 0.63656 0.20332
vt 0.81366 0.36076
vt 0.74612 0.36076
vt 0.66459 0.20332
vt 0.66459 0.17224
# 109 texture vertices

vn 0.07856 0.99645 0.03036
vn -0.00982 0.99992 -0.00844
vn 0.77853 0.62747 -0.01272
vn 0.44204 0.89684 0.01680
vn 0.81599 0.57775 0.01910
vn 0.84292 -0.53804 0.00066
vn 0.81748 -0.57499 -0.03350
vn 0.98680 -0.16181 -0.00674
vn 0.97664 -0.21477 -0.00671
vn 0.97670 -0.21450 -0.00670
vn 0.98973 0.14280 -0.00680
vn 0.95843 0.28524 -0.00657
vn -0.31165 0.95019 -0.00472
vn -0.80337 0.59546 -0.00550
vn -0.60030 0.79975 -0.00719
vn -0.97664 0.21477 -0.00671
vn -0.97670 0.21450 -0.00670
vn -0.95843 -0.28524 -0.00657
vn -0.98973 -0.14280 -0.00680
vn -0.01003 -0.99970 -0.02236
vn 0.07884 -0.99686 0.00731
vn -0.60030 -0.79975 -0.00719
vn -0.31165 -0.95019 -0.00472
vn -0.80337 -0.59546 -0.00550
vn -0.00000 0.99998 -0.00651
vn 0.21041 0.97759 -0.00728
vn 0.23461 0.97209 -0.00041
vn -0.00000 1.00000 -0.00132
vn -0.00000 -1.00000 -0.00132
vn -0.00000 -0.99998 -0.00651
vn 0.21975 0.97514 -0.02850
vn -0.00000 0.99902 -0.04417
vn -0.00000 -0.99902 -0.04417
vn -0.00000 0.99223 -0.12439
vn 0.22800 0.96840 -0.10104
vn -0.00000 -0.99223 -0.12439
vn -0.00000 0.98217 -0.18801
vn -0.23461 0.97209 -0.00041
vn -0.21041 0.97759 -0.00728
vn -0.21975 0.97514 -0.02850
vn -0.22801 0.96840 -0.10104
vn 0.04864 0.00000 -0.99882
vn 0.02432 0.00000 -0.99970
vn -0.02468 0.00000 -0.99970
vn -0.04935 0.00000 -0.99878
vn -0.20596 -0.97667 0.06087
vn 0.08869 0.00000 -0.99606
vn 0.12015 -0.00000 -0.99276
vn -0.64841 -0.68777 0.32641
vn -0.98079 -0.19509 0.00000
vn -0.88146 -0.21521 0.42038
vn 0.96573 -0.25955 0.00000
vn -0.11504 0.00001 -0.99336
vn 0.70729 -0.62288 0.33431
vn 0.88854 -0.14424 0.43555
vn -0.10684 0.00000 -0.99428
vn 0.20738 -0.97382 0.09308
vn 0.20738 0.97382 0.09308
vn -0.08769 0.00000 -0.99615
vn -0.11503 -0.00000 -0.99336
vn 0.70729 0.62288 0.33431
vn 0.98079 0.19509 0.00000
vn 0.87667 0.21628 0.42973
vn -0.96573 0.25955 0.00000
vn 0.12015 0.00000 -0.99276
vn -0.64841 0.68777 0.32641
vn -0.89327 0.14350 0.42601
vn 0.11073 0.00000 -0.99385
vn -0.20596 0.97667 0.06087
vn 0.04175 -0.99191 0.11987
vn 0.05224 0.98731 0.15000
vn 0.27753 -0.15821 0.94760
vn 0.37084 0.15813 0.91513
vn -0.08037 -0.97570 0.20382
vn -0.44409 -0.14836 0.88362
vn -0.33464 0.14950 0.93041
vn -0.06893 0.98219 0.17479
vn -0.18930 -0.46283 0.86600
vn 0.20875 -0.80492 0.55545
vn -0.21046 0.60191 0.77034
vn 0.18903 0.69164 0.69707
vn 0.88575 -0.38228 -0.26328
vn 0.91496 -0.37632 0.14569
vn 0.37733 -0.90967 0.17357
vn 0.32190 -0.94568 0.04555
vn 0.37695 0.92585 0.02666
vn 0.24923 0.95402 0.16652
vn 0.85307 0.49709 0.15863
vn 0.91045 0.38323 -0.15563
vn -0.88575 0.38228 -0.26328
vn -0.91496 0.37632 0.14569
vn -0.37733 0.90967 0.17357
vn -0.37723 0.92458 0.05337
vn 0.08897 -0.89893 0.42896
vn -0.14781 -0.87695 0.45730
vn -0.31803 -0.39589 0.86147
vn 0.35475 -0.46741 0.80974
vn -0.11129 0.93223 0.34432
vn 0.10981 0.84121 0.52945
vn 0.36312 0.33706 0.86864
vn -0.29380 0.51912 0.80262
vn -0.36540 -0.92181 -0.12945
vn -0.45253 -0.89117 0.03201
vn -0.91045 -0.38323 -0.15563
vn -0.91947 -0.33241 -0.20994
vn -0.83472 -0.39305 0.38569
vn -0.32073 -0.93419 0.15628
vn 0.36540 -0.92180 -0.12945
vn 0.86663 -0.46302 -0.18592
vn 0.91947 0.33241 -0.20994
vn 0.36540 0.92180 -0.12945
vn -0.36540 0.92181 -0.12945
vn -0.86663 0.46302 -0.18592
vn -0.85307 -0.49709 0.15863
vn -0.24923 -0.95402 0.16652
vn 0.42818 -0.87928 0.20863
vn 0.83472 0.39305 0.38569
vn 0.87723 -0.26175 0.40244
vn -0.36752 0.91261 0.17908
vn 0.36752 0.91261 0.17908
vn -0.87723 0.26175 0.40244
vn -0.00000 -0.98217 -0.18801
vn 0.22800 -0.96840 -0.10104
vn -0.22801 -0.96840 -0.10104
vn -0.11503 -0.00000 -0.99336
vn -0.11504 0.00000 -0.99336
vn 0.12015 -0.00000 -0.99276
vn 0.12015 0.00000 -0.99276
vn 0.22298 -0.97465 -0.01838
vn 0.23461 -0.97209 -0.00041
vn 0.21041 -0.97759 -0.00728
vn 0.21975 -0.97514 -0.02850
vn -0.21041 -0.97759 -0.00728
vn -0.23461 -0.97209 -0.00041
vn -0.21975 -0.97514 -0.02850
vn -0.19509 -0.98079 0.00000
vn -0.60375 -0.79717 0.00000
vn 0.60375 -0.79718 0.00000
vn 0.19509 -0.98079 0.00000
vn 0.19509 0.98079 0.00000
vn 0.60375 0.79718 0.00000
vn -0.60375 0.79717 0.00000
vn -0.19509 0.98079 0.00000
vn 0.00000 -1.00000 0.00000
vn 0.00000 1.00000 0.00000
vn -0.23312 -0.93863 0.25421
vn 0.22614 0.93497 0.27331
vn 0.00000 0.00000 -1.00000
# 148 normal vertices

g model
f 8/3/8 7/2/7 6/1/6
f 3/6/3 4/5/4 5/4/5
f 15/9/15 14/8/14 13/7/13
f 23/12/23 24/11/24 22/10/22
f 34/15/34 35/14/35 37/13/37
f 35/14/123 36/15/36 37/13/122
f 41/16/41 34/15/34 37/13/37
f 36/15/36 41/16/124 37/13/122
f 44/18/44 43/17/43 42/17/42
f 45/18/45 43/17/43 44/18/44
f 62/19/62 55/20/55 52/19/52
f 63/20/63 55/20/55 62/19/62
f 50/21/50 67/22/67 64/21/64
f 51/22/51 67/22/67 50/21/50
f 55/20/55 73/23/73 72/23/72
f 63/20/63 73/23/73 55/20/55
f 72/23/72 76/24/76 75/24/75
f 73/23/73 76/24/76 72/23/72
f 75/24/75 67/22/67 51/22/51
f 76/24/76 67/22/67 75/24/75
f 59/25/59 45/18/45 44/18/44
f 59/25/59 56/25/56 45/18/45
f 60/26/60 56/25/56 59/25/59
f 62/19/125 56/25/56 60/26/60
f 52/19/126 56/25/56 62/19/125
f 52/19/126 53/26/53 56/25/56
f 47/27/47 42/17/42 43/17/43
f 47/27/47 68/27/68 42/17/42
f 48/28/48 68/27/68 47/27/47
f 50/21/127 68/27/68 48/28/48
f 64/21/128 68/27/68 50/21/127
f 64/21/128 65/28/65 68/27/68
f 78/29/78 72/23/72 75/24/75
f 79/30/79 72/23/72 78/29/78
f 80/29/80 73/23/73 81/30/81
f 76/24/76 73/23/73 80/29/80
f 5/4/5 4/5/4 1/31/1
f 1/31/1 4/5/4 2/32/2
f 4/5/4 3/6/3 2/32/2
f 10/35/10 9/34/9 6/33/6
f 10/35/10 6/33/6 7/36/7
f 12/39/12 3/38/3 5/37/5
f 12/39/12 5/37/5 11/40/11
f 17/43/17 16/42/16 14/41/14
f 17/43/17 14/41/14 15/44/15
f 19/45/19 16/42/16 17/43/17
f 19/45/19 17/43/17 18/46/18
f 2/32/2 15/9/15 13/7/13
f 2/32/2 13/7/13 1/31/1
f 11/40/11 9/34/9 10/35/10
f 11/40/11 10/35/10 12/39/12
f 6/1/6 21/47/21 8/3/129
f 21/47/21 20/48/20 8/3/129
f 20/48/20 7/2/7 8/3/129
f 23/12/23 22/10/22 20/48/20
f 23/12/23 20/48/20 21/47/21
f 24/49/24 19/45/19 18/46/18
f 24/49/24 18/46/18 22/50/22
f 27/53/27 26/52/26 25/51/25
f 27/53/27 25/51/25 28/54/28
f 30/51/30 26/52/131 27/53/130
f 30/51/30 27/53/130 29/54/29
f 25/51/25 26/52/26 31/55/31
f 25/51/25 31/55/31 32/56/32
f 31/55/132 26/52/131 30/51/30
f 31/55/132 30/51/30 33/56/33
f 32/56/32 31/55/31 35/14/35
f 32/56/32 35/14/35 34/15/34
f 35/14/123 31/55/132 33/56/33
f 35/14/123 33/56/33 36/15/36
f 25/51/25 39/58/39 38/57/38
f 25/51/25 38/57/38 28/54/28
f 38/57/134 39/58/133 30/51/30
f 38/57/134 30/51/30 29/54/29
f 25/51/25 32/56/32 40/59/40
f 25/51/25 40/59/40 39/58/39
f 40/59/135 33/56/33 30/51/30
f 40/59/135 30/51/30 39/58/133
f 41/16/41 40/59/40 32/56/32
f 41/16/41 32/56/32 34/15/34
f 41/16/124 36/15/36 33/56/33
f 41/16/124 33/56/33 40/59/135
f 48/28/137 47/27/136 46/60/46
f 48/28/137 46/60/46 49/61/49
f 50/21/50 48/28/137 49/61/49
f 50/21/50 49/61/49 51/22/51
f 54/62/54 53/26/138 52/19/52
f 54/62/54 52/19/52 55/20/55
f 57/63/57 56/25/139 53/26/138
f 57/63/57 53/26/138 54/62/54
f 60/26/141 59/25/140 58/63/58
f 60/26/141 58/63/58 61/62/61
f 62/19/62 60/26/141 61/62/61
f 62/19/62 61/62/61 63/20/63
f 66/61/66 65/28/142 64/21/64
f 66/61/66 64/21/64 67/22/67
f 69/60/69 68/27/143 65/28/142
f 69/60/69 65/28/142 66/61/66
f 57/63/57 70/64/70 45/18/144
f 57/63/57 45/18/144 56/25/139
f 58/63/58 59/25/140 44/18/145
f 58/63/58 44/18/145 71/64/71
f 70/64/70 74/65/74 43/17/144
f 70/64/70 43/17/144 45/18/144
f 77/65/77 71/64/71 44/18/145
f 77/65/77 44/18/145 42/17/145
f 46/60/46 47/27/136 43/17/144
f 46/60/46 43/17/144 74/65/74
f 69/60/69 77/65/77 42/17/145
f 69/60/69 42/17/145 68/27/143
f 49/61/49 46/60/46 74/65/74
f 49/61/49 74/65/74 78/29/146
f 75/24/75 51/22/51 49/61/49
f 75/24/75 49/61/49 78/29/78
f 54/62/54 55/20/55 72/23/72
f 54/62/54 72/23/72 79/30/79
f 79/30/79 70/64/70 57/63/57
f 79/30/79 57/63/57 54/62/54
f 66/61/66 67/22/67 76/24/76
f 66/61/66 76/24/76 80/29/80
f 77/65/77 69/60/69 66/61/66
f 77/65/77 66/61/66 80/29/80
f 81/30/147 61/62/61 58/63/58
f 81/30/147 58/63/58 71/64/71
f 73/23/73 63/20/63 61/62/61
f 73/23/73 61/62/61 81/30/81
f 79/30/79 78/29/78 74/65/74
f 79/30/79 74/65/74 70/64/70
f 81/30/81 71/64/71 77/65/77
f 81/30/81 77/65/77 80/29/80
f 85/68/85 84/67/84 83/66/83
f 85/68/85 83/66/83 82/69/82
f 88/72/88 87/71/87 86/70/86
f 88/72/88 86/70/86 89/73/89
f 93/76/93 92/75/92 91/74/91
f 93/76/93 91/74/91 90/77/90
f 96/80/96 95/79/95 94/78/94
f 96/80/96 94/78/94 97/81/97
f 101/84/101 100/83/100 99/82/99
f 101/84/101 99/82/99 98/85/98
f 104/88/104 103/87/103 102/86/102
f 104/88/104 102/86/102 105/89/105
f 107/91/107 95/79/95 96/90/96
f 107/91/107 96/90/96 106/92/106
f 85/68/85 108/93/108 102/86/102
f 85/68/85 102/86/102 103/87/103
f 82/69/82 89/73/89 110/94/110
f 82/69/82 110/94/110 109/95/109
f 86/70/86 93/76/93 112/96/112
f 86/70/86 112/96/112 111/97/111
f 90/77/90 104/88/104 105/89/105
f 90/77/90 105/89/105 113/98/113
f 100/83/100 101/84/101 96/80/96
f 100/83/100 96/80/96 97/81/97
f 104/88/104 90/77/90 91/74/91
f 104/88/104 91/74/91 114/99/114
f 93/76/93 86/70/86 87/71/87
f 93/76/93 87/71/87 92/75/92
f 89/73/89 82/69/82 83/66/83
f 89/73/89 83/66/83 88/72/88
f 85/68/85 103/87/103 115/100/115
f 85/68/85 115/100/115 84/67/84
f 94/78/94 95/79/95 107/91/107
f 94/78/94 107/91/107 116/101/116
f 100/104/100 97/103/97 118/102/118
f 100/104/100 118/102/118 117/105/117
f 98/85/98 99/82/99 120/106/120
f 98/85/98 120/106/120 119/107/119
f 96/90/96 101/109/101 121/108/121
f 96/90/96 121/108/121 106/92/106
f 107/91/107 102/86/102 108/93/108
f 107/91/107 108/93/108 116/101/116
f 118/102/118 109/95/109 110/94/110
f 118/102/118 110/94/110 117/105/117
f 111/97/111 112/96/112 119/107/119
f 111/97/111 119/107/119 120/106/120
f 121/108/121 113/98/113 105/89/105
f 121/108/121 105/89/105 106/92/106
f 114/99/114 115/100/115 103/87/103
f 114/99/114 103/87/103 104/88/104
f 82/69/82 109/95/109 108/93/108
f 82/69/82 108/93/108 85/68/85
f 89/73/89 86/70/86 111/97/111
f 89/73/89 111/97/111 110/94/110
f 90/77/90 113/98/113 112/96/112
f 90/77/90 112/96/112 93/76/93
f 116/101/116 118/102/118 97/103/97
f 116/101/116 97/103/97 94/78/94
f 120/106/120 99/82/99 100/104/100
f 120/106/120 100/104/100 117/105/117
f 119/107/119 121/108/121 101/109/101
f 119/107/119 101/109/101 98/85/98
f 109/95/109 118/102/118 116/101/116
f 109/95/109 116/101/116 108/93/108
f 120/106/120 117/105/117 110/94/110
f 120/106/120 110/94/110 111/97/111
f 113/98/113 121/108/121 119/107/119
f 113/98/113 119/107/119 112/96/112
f 107/91/107 106/92/106 105/89/105
f 107/91/107 105/89/105 102/86/102
f 92/75/148 87/71/148 91/74/148
f 87/71/148 88/72/148 91/74/148
f 88/72/148 83/66/148 91/74/148
f 91/74/148 83/66/148 114/99/148
f 83/66/148 84/67/148 114/99/148
f 84/67/148 115/100/148 114/99/148
# 206 elements

