# This file uses centimeters as units for non-parametric coordinates.

mtllib soul_1.mtl

g default
v 0.704014 -0.087272 0.442439
v 0.974216 0.176454 0.396077
v 0.999293 0.348935 0.537004
v 0.972771 0.514908 0.493517
v 0.975333 0.647581 0.505108
v 0.952186 0.690712 0.518612
v 0.847408 0.757491 0.509713
v 0.637060 0.002443 0.602367
v 0.947933 0.077297 0.694560
v 1.113587 0.210723 0.733800
v 1.042305 0.370548 0.725440
v 1.046992 0.485495 0.736366
v 1.007142 0.603480 0.741243
v 0.919777 0.760461 0.681569
v 0.753141 0.879607 0.602036
v 0.620524 0.069693 0.795055
v 0.704775 0.214708 0.865808
v 0.802942 0.346062 0.896809
v 0.788787 0.500838 0.841530
v 0.843703 0.597451 0.743808
v 0.801690 0.709117 0.696582
v 0.869267 0.306543 0.300978
v 0.993613 0.385855 0.491532
v 0.887210 0.619455 0.301071
v 0.965328 0.527213 0.414795
v 0.948387 0.743180 0.429562
v 0.974228 0.446547 0.426087
v 0.866145 0.466406 0.262455
v 0.670903 0.567646 0.819854
v 0.757480 0.632904 0.768036
v 0.657544 0.715674 0.712525
v 0.704014 -0.087272 0.442439
v 0.974216 0.176454 0.396077
v 0.999293 0.348935 0.537004
v 0.972771 0.514908 0.493517
v 0.975333 0.647581 0.505108
v 0.952186 0.690712 0.518612
v 0.847408 0.757491 0.509713
v 0.637060 0.002443 0.602367
v 0.947933 0.077297 0.694560
v 1.113587 0.210723 0.733800
v 1.042305 0.370548 0.725440
v 1.046992 0.485495 0.736366
v 1.007142 0.603480 0.741243
v 0.919777 0.760461 0.681569
v 0.753141 0.879607 0.602036
v 0.620524 0.069693 0.795055
v 0.704775 0.214708 0.865808
v 0.802942 0.346062 0.896809
v 0.788787 0.500838 0.841530
v 0.843703 0.597451 0.743808
v 0.801690 0.709117 0.696582
v 0.869267 0.306543 0.300978
v 0.993613 0.385855 0.491532
v 0.887210 0.619455 0.301071
v 0.965328 0.527213 0.414795
v 0.948387 0.743180 0.429562
v 0.974228 0.446547 0.426087
v 0.866145 0.466406 0.262455
v 0.670903 0.567646 0.819854
v 0.757480 0.632904 0.768036
v 0.657544 0.715674 0.712525
v 0.253841 -0.000759 0.316355
v 0.030148 0.176454 0.417436
v 0.069938 0.348935 0.320767
v 0.084834 0.514908 0.369476
v 0.085229 0.647581 0.357612
v 0.111004 0.690712 0.350277
v 0.210293 0.757491 0.384908
v 0.517488 0.030874 0.250643
v 0.264020 0.070008 0.197216
v 0.008075 0.210723 0.101757
v 0.075051 0.370548 0.127552
v 0.073223 0.485495 0.115804
v 0.122223 0.590411 0.138142
v 0.152254 0.681164 0.169657
v 0.324528 0.879607 0.318877
v 0.496333 0.095518 0.118557
v 0.396207 0.234394 0.069276
v 0.384923 0.411087 0.015141
v 0.336671 0.525499 0.091326
v 0.265486 0.627582 0.158358
v 0.299989 0.686345 0.221939
v 0.423453 0.568195 0.121846
v 0.353647 0.623739 0.155712
v 0.457423 0.700861 0.190366
v 0.459458 0.619602 0.162141
v 0.003775 0.390371 0.552885
v 0.041131 0.420691 0.412252
v 0.051974 0.560643 0.567284
v 0.072944 0.577663 0.488338
v 0.104153 0.748661 0.535425
v 0.253841 -0.000759 0.316355
v 0.030148 0.176454 0.417436
v 0.069938 0.348935 0.320767
v 0.084834 0.514908 0.369476
v 0.085229 0.647581 0.357612
v 0.111004 0.690712 0.350277
v 0.210293 0.757491 0.384908
v 0.517488 0.030874 0.250643
v 0.264020 0.070008 0.197216
v 0.008075 0.210723 0.101757
v 0.075051 0.370548 0.127552
v 0.073223 0.485495 0.115804
v 0.122223 0.590411 0.138142
v 0.152254 0.681164 0.169657
v 0.324528 0.879607 0.318877
v 0.496333 0.095518 0.118557
v 0.396207 0.234394 0.069276
v 0.384923 0.411087 0.015141
v 0.336671 0.525499 0.091326
v 0.265486 0.627582 0.158358
v 0.299989 0.686345 0.221939
v 0.423453 0.568195 0.121846
v 0.353647 0.623739 0.155712
v 0.457423 0.700861 0.190366
v 0.459458 0.619602 0.162141
v 0.003775 0.390371 0.552885
v 0.041131 0.420691 0.412252
v 0.051974 0.560643 0.567284
v 0.072944 0.577663 0.488338
v 0.104153 0.748661 0.535425
v 0.723052 0.425265 0.253447
v 0.780698 0.587820 0.529037
v 0.546665 0.688285 0.326966
v 0.402024 0.425265 0.202080
v 0.546665 0.162245 0.326966
v 0.780698 0.262709 0.529037
v 0.639939 0.425265 0.772880
v 0.495298 0.688285 0.647994
v 0.261265 0.587820 0.445923
v 0.261265 0.262709 0.445923
v 0.495298 0.162245 0.647994
v 0.318911 0.425265 0.721513
vt 0.487818 0.011089
vt 0.551103 0.042667
vt 0.528313 0.287999
vt 0.435991 0.319548
vt 0.529607 0.427051
vt 0.468398 0.496240
vt 0.533517 0.522106
vt 0.537829 0.601086
vt 0.465170 0.659778
vt 0.545994 0.688425
vt 0.481735 0.773219
vt 0.546924 0.823585
vt 0.492004 0.810328
vt 0.556171 0.993145
vt 0.505095 0.917241
vt 0.609338 0.140615
vt 0.625980 0.298506
vt 0.621565 0.453935
vt 0.620044 0.606324
vt 0.593047 0.716697
vt 0.584748 0.835320
vt 0.452566 0.513642
vt 0.388104 0.418517
vt 0.430055 0.555109
vt 0.422403 0.618391
vt 0.377169 0.677493
vt 0.370546 0.547211
vt 0.414509 0.794820
vt 0.651558 0.683883
vt 0.620941 0.738024
vt 0.645098 0.833596
vt 0.550981 0.019447
vt 0.594090 0.337539
vt 0.502929 0.287395
vt 0.487012 0.038105
vt 0.556898 0.507259
vt 0.497780 0.425800
vt 0.491228 0.519773
vt 0.555516 0.671046
vt 0.484716 0.597639
vt 0.535808 0.780775
vt 0.474113 0.683052
vt 0.524523 0.815671
vt 0.469387 0.817619
vt 0.508466 0.919589
vt 0.455407 0.984787
vt 0.405255 0.277929
vt 0.426236 0.123908
vt 0.405333 0.433778
vt 0.402590 0.585982
vt 0.426391 0.701578
vt 0.431343 0.821558
vt 0.639118 0.445750
vt 0.572225 0.527779
vt 0.593559 0.573618
vt 0.653128 0.577550
vt 0.642993 0.706154
vt 0.599481 0.638253
vt 0.602580 0.815774
vt 0.397954 0.717068
vt 0.368976 0.656673
vt 0.371123 0.807271
vt 0.540371 0.140492
vt 0.617769 0.100178
vt 0.563378 0.219786
vt 0.466883 0.291739
vt 0.528591 0.384461
vt 0.478441 0.458249
vt 0.535531 0.478636
vt 0.537780 0.552527
vt 0.474622 0.603945
vt 0.542517 0.627812
vt 0.488537 0.705047
vt 0.543467 0.693139
vt 0.497207 0.739468
vt 0.551640 0.904056
vt 0.509052 0.830788
vt 0.630214 0.209156
vt 0.618458 0.344264
vt 0.623745 0.490909
vt 0.604811 0.595188
vt 0.577515 0.680066
vt 0.576692 0.756001
vt 0.624460 0.648942
vt 0.602087 0.685269
vt 0.630343 0.701333
vt 0.624616 0.762607
vt 0.447763 0.477871
vt 0.412696 0.423406
vt 0.416548 0.577147
vt 0.396902 0.546582
vt 0.391761 0.691180
vt 0.481604 0.140410
vt 0.555130 0.291535
vt 0.458618 0.219747
vt 0.404196 0.100238
vt 0.543613 0.458074
vt 0.493446 0.384367
vt 0.486526 0.478552
vt 0.547459 0.603776
vt 0.484291 0.552447
vt 0.533561 0.704901
vt 0.479568 0.627740
vt 0.524897 0.739334
vt 0.478629 0.693067
vt 0.513069 0.830671
vt 0.470494 0.903996
vt 0.403569 0.344315
vt 0.391780 0.209237
vt 0.398314 0.490957
vt 0.417268 0.595202
vt 0.444578 0.680043
vt 0.445415 0.755974
vt 0.420004 0.685276
vt 0.397627 0.648965
vt 0.397480 0.762629
vt 0.391748 0.701358
vt 0.609349 0.423104
vt 0.574296 0.477636
vt 0.625176 0.546249
vt 0.605538 0.576852
vt 0.630355 0.690837
vt 0.259585 0.220571
vt 0.257602 0.241316
vt 0.245138 0.228777
vt 0.276537 0.221684
vt 0.260332 0.199745
vt 0.246335 0.210546
vt 0.228039 0.238722
vt 0.201240 0.241541
vt 0.193099 0.216205
vt 0.210118 0.226554
vt 0.204484 0.192151
vt 0.211325 0.208170
vt 0.230684 0.198450
vt 0.234117 0.218898
vt 0.222810 0.218156
vn -0.496791 0.863868 -0.083250
vn -0.398382 0.870932 -0.287697
vn -0.574524 0.777546 -0.255628
vn -0.799437 0.568678 0.193667
vn -0.864098 0.340109 -0.371027
vn -0.930562 0.102370 0.351531
vn -0.843483 0.000411 -0.537156
vn -0.907406 -0.165545 -0.386276
vn -0.969126 -0.109553 0.220893
vn -0.718099 -0.412619 -0.560427
vn -0.945733 -0.300811 0.122887
vn -0.514366 -0.753604 -0.409278
vn -0.789444 -0.600814 0.125699
vn -0.494890 -0.851856 -0.171538
vn -0.602304 -0.752421 0.266633
vn -0.197476 0.787528 -0.583784
vn -0.305558 0.555120 -0.773612
vn -0.424095 0.016117 -0.905474
vn -0.313286 -0.334919 -0.888640
vn -0.035496 -0.513643 -0.857270
vn 0.072155 -0.429214 -0.900316
vn -0.858209 -0.044054 0.511407
vn -0.855363 0.023546 0.517494
vn -0.839323 0.106988 0.533001
vn -0.840132 -0.040532 0.540865
vn -0.844803 -0.056359 0.532101
vn -0.839314 0.075434 0.538388
vn -0.856596 -0.101781 0.505849
vn -0.204667 -0.540125 -0.816319
vn -0.202535 -0.540869 -0.816358
vn -0.039300 -0.588871 -0.807271
vn 0.496791 -0.863868 0.083250
vn 0.799437 -0.568678 -0.193667
vn 0.574524 -0.777545 0.255628
vn 0.398382 -0.870932 0.287697
vn 0.930563 -0.102369 -0.351531
vn 0.864098 -0.340109 0.371026
vn 0.843483 -0.000411 0.537156
vn 0.969126 0.109553 -0.220893
vn 0.907406 0.165545 0.386276
vn 0.945733 0.300812 -0.122887
vn 0.718099 0.412619 0.560427
vn 0.789444 0.600814 -0.125699
vn 0.514366 0.753604 0.409278
vn 0.602303 0.752421 -0.266633
vn 0.494890 0.851856 0.171538
vn 0.305558 -0.555120 0.773612
vn 0.197476 -0.787528 0.583784
vn 0.424095 -0.016117 0.905474
vn 0.313286 0.334919 0.888640
vn 0.035496 0.513643 0.857269
vn -0.072155 0.429214 0.900316
vn 0.855363 -0.023546 -0.517494
vn 0.858209 0.044054 -0.511407
vn 0.839323 -0.106988 -0.533001
vn 0.839314 -0.075434 -0.538388
vn 0.844803 0.056358 -0.532101
vn 0.840132 0.040532 -0.540865
vn 0.856596 0.101781 -0.505849
vn 0.202535 0.540869 0.816358
vn 0.204667 0.540125 0.816319
vn 0.039300 0.588872 0.807271
vn 0.399613 0.772740 0.493136
vn 0.233312 0.735479 0.636110
vn 0.402489 0.739626 0.539403
vn 0.869956 0.470837 0.146594
vn 0.654665 0.415975 0.631172
vn 0.976013 0.205691 0.071339
vn 0.629433 -0.024298 0.776675
vn 0.806667 -0.207736 0.553293
vn 0.989841 -0.135167 0.044100
vn 0.616880 -0.424612 0.662694
vn 0.947913 -0.283069 0.146059
vn 0.431171 -0.679756 0.593316
vn 0.751172 -0.645803 0.136673
vn 0.479875 -0.800329 0.359434
vn 0.667115 -0.740355 0.082653
vn 0.155796 0.707309 0.689523
vn 0.163763 0.346705 0.923568
vn 0.197260 -0.057159 0.978683
vn 0.104162 -0.435077 0.894348
vn -0.119644 -0.476031 0.871252
vn -0.280162 -0.468145 0.838063
vn -0.039050 -0.500938 0.864602
vn -0.031130 -0.514534 0.856905
vn -0.071620 -0.443176 0.893569
vn -0.071620 -0.443176 0.893569
vn 0.960639 -0.109652 0.255242
vn 0.959192 -0.146042 0.242122
vn 0.943617 -0.269246 0.192600
vn 0.942967 -0.272062 0.191820
vn 0.951794 -0.229692 0.203299
vn -0.399613 -0.772740 -0.493136
vn -0.869956 -0.470837 -0.146594
vn -0.402489 -0.739626 -0.539403
vn -0.233313 -0.735479 -0.636110
vn -0.976013 -0.205691 -0.071339
vn -0.654665 -0.415975 -0.631172
vn -0.629433 0.024298 -0.776675
vn -0.989841 0.135167 -0.044100
vn -0.806667 0.207736 -0.553293
vn -0.947913 0.283069 -0.146059
vn -0.616880 0.424612 -0.662694
vn -0.751172 0.645803 -0.136673
vn -0.431171 0.679756 -0.593316
vn -0.667115 0.740355 -0.082653
vn -0.479875 0.800329 -0.359434
vn -0.163763 -0.346705 -0.923568
vn -0.155796 -0.707308 -0.689523
vn -0.197260 0.057159 -0.978683
vn -0.104162 0.435077 -0.894348
vn 0.119644 0.476031 -0.871252
vn 0.280162 0.468145 -0.838063
vn 0.031130 0.514534 -0.856905
vn 0.039050 0.500938 -0.864602
vn 0.071621 0.443176 -0.893569
vn 0.071621 0.443176 -0.893569
vn -0.959192 0.146043 -0.242122
vn -0.960639 0.109652 -0.255242
vn -0.942967 0.272062 -0.191820
vn -0.943617 0.269246 -0.192600
vn -0.951794 0.229692 -0.203299
vn 0.661319 0.577350 -0.478878
vn 0.661319 0.577350 -0.478878
vn 0.661319 0.577350 -0.478878
vn 0.147597 0.356822 -0.922439
vn 0.147597 0.356822 -0.922439
vn 0.147597 0.356822 -0.922439
vn 0.147597 -0.356822 -0.922439
vn 0.147597 -0.356822 -0.922439
vn 0.147597 -0.356822 -0.922439
vn 0.661318 -0.577350 -0.478879
vn 0.661318 -0.577350 -0.478879
vn 0.661318 -0.577350 -0.478879
vn 0.978816 0.000000 -0.204743
vn 0.978816 0.000000 -0.204743
vn 0.978816 0.000000 -0.204743
vn 0.352340 0.934172 0.056377
vn 0.352340 0.934172 0.056377
vn 0.352340 0.934172 0.056377
vn -0.478879 0.577350 -0.661318
vn -0.478879 0.577350 -0.661318
vn -0.478879 0.577350 -0.661318
vn -0.478879 -0.577350 -0.661318
vn -0.478878 -0.577350 -0.661318
vn -0.478879 -0.577350 -0.661318
vn 0.352340 -0.934172 0.056377
vn 0.352340 -0.934172 0.056377
vn 0.352340 -0.934172 0.056377
vn 0.866062 0.000000 0.499937
vn 0.866062 0.000000 0.499937
vn 0.866062 0.000000 0.499937
vn 0.478879 0.577350 0.661318
vn 0.478879 0.577350 0.661318
vn 0.478879 0.577350 0.661318
vn -0.352340 0.934172 -0.056377
vn -0.352340 0.934172 -0.056377
vn -0.352340 0.934172 -0.056377
vn -0.866062 0.000000 -0.499937
vn -0.866062 0.000000 -0.499937
vn -0.866062 0.000000 -0.499937
vn -0.352340 -0.934172 -0.056377
vn -0.352340 -0.934172 -0.056377
vn -0.352340 -0.934172 -0.056377
vn 0.478878 -0.577350 0.661318
vn 0.478878 -0.577350 0.661318
vn 0.478878 -0.577350 0.661318
vn -0.147597 0.356822 0.922439
vn -0.147597 0.356822 0.922439
vn -0.147597 0.356822 0.922439
vn -0.661319 0.577350 0.478878
vn -0.661319 0.577350 0.478878
vn -0.661319 0.577350 0.478878
vn -0.978816 0.000000 0.204743
vn -0.978816 0.000000 0.204743
vn -0.978816 0.000000 0.204743
vn -0.661319 -0.577350 0.478879
vn -0.661319 -0.577350 0.478879
vn -0.661319 -0.577350 0.478879
vn -0.147597 -0.356822 0.922439
vn -0.147597 -0.356822 0.922439
vn -0.147597 -0.356822 0.922439
s 1
g soul1
usemtl mat1
f 1/1/1 8/2/2 9/3/3 2/4/4
f 2/4/4 9/3/3 10/5/5 3/6/6
f 3/6/6 10/5/5 11/7/7
f 3/6/6 11/7/7 12/8/8 4/9/9
f 4/9/9 12/8/8 13/10/10 5/11/11
f 5/11/11 13/10/10 14/12/12 6/13/13
f 6/13/13 14/12/12 15/14/14 7/15/15
f 8/2/2 16/16/16 17/17/17 9/3/3
f 9/3/3 17/17/17 10/5/5
f 10/5/5 17/17/17 18/18/18 11/7/7
f 11/7/7 18/18/18 12/8/8
f 12/8/8 18/18/18 19/19/19 13/10/10
f 13/10/10 19/19/19 20/20/20 14/12/12
f 14/12/12 20/20/20 21/21/21 15/14/14
f 3/6/6 23/22/22 22/23/23 2/4/4
f 27/24/24 25/25/25 24/26/26 28/27/27
f 25/25/25 26/28/28 24/26/26
f 23/22/22 27/24/24 28/27/27 22/23/23
f 19/19/19 29/29/29 30/30/30 20/20/20
f 29/29/29 31/31/31 30/30/30
s 3
f 32/32/32 33/33/33 40/34/34 39/35/35
f 33/33/33 34/36/36 41/37/37 40/34/34
f 34/36/36 42/38/38 41/37/37
f 34/36/36 35/39/39 43/40/40 42/38/38
f 35/39/39 36/41/41 44/42/42 43/40/40
f 36/41/41 37/43/43 45/44/44 44/42/42
f 37/43/43 38/45/45 46/46/46 45/44/44
f 39/35/35 40/34/34 48/47/47 47/48/48
f 40/34/34 41/37/37 48/47/47
f 41/37/37 42/38/38 49/49/49 48/47/47
f 42/38/38 43/40/40 49/49/49
f 43/40/40 44/42/42 50/50/50 49/49/49
f 44/42/42 45/44/44 51/51/51 50/50/50
f 45/44/44 46/46/46 52/52/52 51/51/51
f 34/36/36 33/33/33 53/53/53 54/54/54
f 58/55/55 59/56/56 55/57/57 56/58/58
f 56/58/58 55/57/57 57/59/59
f 54/54/54 53/53/53 59/56/56 58/55/55
f 50/50/50 51/51/51 61/60/60 60/61/61
f 60/61/61 61/60/60 62/62/62
s 4
f 63/63/63 70/64/64 71/65/65 64/66/66
f 64/66/66 71/65/65 72/67/67 65/68/68
f 65/68/68 72/67/67 73/69/69
f 65/68/68 73/69/69 74/70/70 66/71/71
f 66/71/71 74/70/70 75/72/72 67/73/73
f 67/73/73 75/72/72 76/74/74 68/75/75
f 68/75/75 76/74/74 77/76/76 69/77/77
f 70/64/64 78/78/78 79/79/79 71/65/65
f 71/65/65 79/79/79 72/67/67
f 72/67/67 79/79/79 80/80/80 73/69/69
f 73/69/69 80/80/80 74/70/70
f 74/70/70 80/80/80 81/81/81 75/72/72
f 75/72/72 81/81/81 82/82/82 76/74/74
f 76/74/74 82/82/82 83/83/83 77/76/76
f 81/81/81 84/84/84 85/85/85 82/82/82
f 84/84/84 87/86/86 86/87/87 85/85/85
f 65/68/68 89/88/88 88/89/89 64/66/66
f 89/88/88 91/90/90 90/91/91 88/89/89
f 91/90/90 92/92/92 90/91/91
s 5
f 93/93/93 94/94/94 101/95/95 100/96/96
f 94/94/94 95/97/97 102/98/98 101/95/95
f 95/97/97 103/99/99 102/98/98
f 95/97/97 96/100/100 104/101/101 103/99/99
f 96/100/100 97/102/102 105/103/103 104/101/101
f 97/102/102 98/104/104 106/105/105 105/103/103
f 98/104/104 99/106/106 107/107/107 106/105/105
f 100/96/96 101/95/95 109/108/108 108/109/109
f 101/95/95 102/98/98 109/108/108
f 102/98/98 103/99/99 110/110/110 109/108/108
f 103/99/99 104/101/101 110/110/110
f 104/101/101 105/103/103 111/111/111 110/110/110
f 105/103/103 106/105/105 112/112/112 111/111/111
f 106/105/105 107/107/107 113/113/113 112/112/112
f 111/111/111 112/112/112 115/114/114 114/115/115
f 114/115/115 115/114/114 116/116/116 117/117/117
f 95/97/97 94/94/94 118/118/118 119/119/119
f 119/119/119 118/118/118 120/120/120 121/121/121
f 121/121/121 120/120/120 122/122/122
s off
f 123/123/123 125/124/124 124/125/125
f 123/123/126 126/126/127 125/124/128
f 123/123/129 127/127/130 126/126/131
f 123/123/132 128/128/133 127/127/134
f 123/123/135 124/125/136 128/128/137
f 124/125/138 125/124/139 130/129/140
f 125/130/141 126/131/142 131/132/143
f 126/131/144 127/133/145 132/134/146
f 127/127/147 128/128/148 133/135/149
f 128/128/150 124/125/151 129/136/152
f 124/125/153 130/129/154 129/136/155
f 125/130/156 131/132/157 130/129/158
f 126/131/159 132/134/160 131/132/161
f 127/133/162 133/135/163 132/134/164
f 128/128/165 129/136/166 133/135/167
f 129/136/168 130/129/169 134/137/170
f 130/129/171 131/132/172 134/137/173
f 131/132/174 132/134/175 134/137/176
f 132/134/177 133/135/178 134/137/179
f 133/135/180 129/136/181 134/137/182
