# Created by Metasequoia

mtllib fu.mtl

v -5.446787 0.110819 27.368006
v -4.030188 0.110819 19.687637
v -2.564483 0.110819 9.888853
v -1.483284 0.110819 5.352112
v -1.497761 2.356280 5.345506
v 4.067291 0.110830 19.708223
v 5.444837 0.110827 27.395681
v 2.651405 0.110830 9.902126
v 0.070097 3.022115 -0.585613
v 0.070229 0.110819 -0.637319
v 1.607792 2.356280 5.353399
v 1.593279 0.110819 5.359923
v 0.216502 0.110819 -58.197002
v -0.459333 0.110819 -48.441757
v 0.191833 0.547294 -48.488144
v -2.555800 0.110819 -18.191612
v 0.160636 1.314591 -36.213497
v 0.106598 3.453508 -15.003515
v 0.842752 0.110819 -48.438457
v 2.785444 0.110819 -18.178030
v -10.501523 2.843161 9.432393
v -7.370591 2.637781 1.878945
v -10.393856 0.110819 19.360994
v -8.441905 2.191183 18.876236
v -12.934464 0.110819 11.204865
v -7.678320 1.861629 27.307051
v -8.312464 0.110819 36.048832
v -9.108026 0.110819 2.055922
v -4.990921 0.110819 -4.478910
v -13.059908 0.110819 -0.515457
v -15.392826 1.832212 3.502377
v -23.253637 0.110819 -20.799103
v -26.362791 0.867326 -18.906998
v -19.371511 0.110819 -21.332550
v -9.171735 0.110819 27.125696
v -17.573431 0.110819 4.130038
v -17.083670 0.110819 -5.337860
v -19.349184 1.197027 -2.520628
v -31.756393 0.848192 -25.100065
v -31.001762 0.110819 -26.096672
v -35.101051 0.110819 -27.395008
v -28.771267 0.860800 -22.264534
v -26.739241 0.110819 -23.602118
v -21.397778 0.110819 -18.077818
v -19.577133 0.110819 -9.360738
v -22.525732 0.865635 -8.527360
v -24.859430 0.865688 -14.180539
v -21.151068 0.110819 -14.483701
v 10.593146 2.843441 9.489228
v 7.498151 2.637790 1.916719
v 10.432534 0.110819 19.413939
v 13.014559 0.110819 11.270807
v 8.482901 2.191139 18.919294
v 8.266349 0.110819 36.090992
v 7.679168 1.860366 27.343105
v 9.234678 0.110819 2.102540
v 5.150838 0.110819 -4.453135
v 13.199566 0.110819 -0.448725
v 15.512054 1.832207 3.580904
v 23.496277 0.110819 -20.680304
v 19.616894 0.110819 -21.233456
v 26.595821 0.867326 -18.772408
v 9.170967 0.110819 27.172340
v 17.689419 0.110819 4.219661
v 17.247801 0.110819 -5.250597
v 19.499109 1.196967 -2.421854
v 26.996096 0.110819 -23.465582
v 29.021343 0.860800 -22.117655
v 31.271273 0.110819 -25.938446
v 32.020813 0.848192 -24.938009
v 21.626616 0.110819 -17.968498
v 19.761675 0.110819 -9.260763
v 22.705954 0.865651 -8.412450
v 21.361622 0.110819 -14.375668
v 25.068472 0.865716 -14.053691
v -1.497761 -2.134639 5.345506
v 0.070097 -2.800478 -0.585613
v 1.607792 -2.134639 5.353399
v 0.191833 -0.325657 -48.488144
v 0.106598 -3.231871 -15.003515
v 0.130935 -2.524605 -24.526649
v 0.145749 -1.948866 -30.354620
v -10.501523 -2.621522 9.432393
v -7.370591 -2.416142 1.878945
v -8.441905 -1.969544 18.876236
v -7.678320 -1.639991 27.307051
v -15.392826 -1.610575 3.502377
v -26.362791 -0.645688 -18.906998
v -19.349184 -0.975389 -2.520628
v -31.756393 -0.626554 -25.100065
v -28.771267 -0.639162 -22.264534
v -22.525732 -0.643997 -8.527360
v -24.859430 -0.644051 -14.180539
v 10.593146 -2.621803 9.489228
v 7.498151 -2.416152 1.916719
v 8.482901 -1.969501 18.919294
v 7.679168 -1.638727 27.343105
v 15.512054 -1.610570 3.580904
v 26.595821 -0.645688 -18.772408
v 19.499109 -0.975330 -2.421854
v 32.020813 -0.626554 -24.938009
v 29.021343 -0.639162 -22.117655
v 22.705954 -0.644014 -8.412450
v 25.068472 -0.644076 -14.053691
v 35.377106 0.110819 -27.215904
v -32.824142 0.110819 -24.496208
v -21.686516 0.110819 -1.428394
v -25.046806 0.110819 -7.198750
v -26.914742 0.110819 -12.868902
v -28.229496 0.110819 -17.829426
v -30.477301 0.110819 -21.471191
v 33.085472 0.110819 -24.328697
v 21.830727 0.110819 -1.317789
v 25.220329 0.110819 -7.071021
v 27.117056 0.110819 -12.731593
v 28.456997 0.110819 -17.685364
v 30.723326 0.110819 -21.315668
v 5.995985 -0.663284 39.526478
v 0.091092 -1.170063 36.166992
v 0.044938 0.110819 9.314071
v -0.084149 0.110819 60.111111
v 5.995985 0.110819 39.526478
v -5.927752 0.110819 39.496201
v -5.927752 -0.663284 39.496201
v 5.995985 0.884925 39.526478
v -5.927752 0.884925 39.496201
v 0.091092 1.391704 36.166992
# 127 vertices

vt 0.57488 0.13905
vt 0.57485 0.13904
vt 0.57684 0.13059
vt 0.56909 0.13905
vt 0.57199 0.15020
vt 0.57199 0.15010
vt 0.56912 0.13904
vt 0.57199 0.23929
vt 0.57320 0.23920
vt 0.57199 0.25737
vt 0.57199 0.21644
vt 0.57696 0.18287
vt 0.57199 0.17695
vt 0.57077 0.23920
vt 0.56701 0.18287
vt 0.56713 0.13059
vt 0.59162 0.13140
vt 0.58583 0.14548
vt 0.59614 0.12809
vt 0.58774 0.11383
vt 0.59137 0.11292
vt 0.58742 0.08185
vt 0.58628 0.09813
vt 0.58212 0.09803
vt 0.58143 0.15733
vt 0.58906 0.14514
vt 0.60075 0.14242
vt 0.59643 0.14991
vt 0.60828 0.18864
vt 0.62129 0.18409
vt 0.61551 0.18763
vt 0.58906 0.09847
vt 0.57952 0.11234
vt 0.60481 0.14124
vt 0.60815 0.15361
vt 0.60395 0.15887
vt 0.63760 0.19985
vt 0.62996 0.19745
vt 0.63136 0.19560
vt 0.62579 0.19033
vt 0.62201 0.19283
vt 0.61353 0.18338
vt 0.61409 0.16478
vt 0.60861 0.16635
vt 0.61846 0.17530
vt 0.61156 0.17588
vt 0.55234 0.13139
vt 0.55814 0.14548
vt 0.55623 0.11383
vt 0.54783 0.12809
vt 0.55260 0.11292
vt 0.55769 0.09814
vt 0.55655 0.08185
vt 0.56185 0.09803
vt 0.56255 0.15733
vt 0.55491 0.14514
vt 0.54321 0.14242
vt 0.54754 0.14991
vt 0.52268 0.18409
vt 0.53569 0.18864
vt 0.52846 0.18763
vt 0.55491 0.09847
vt 0.56445 0.11234
vt 0.53916 0.14124
vt 0.53582 0.15361
vt 0.54002 0.15887
vt 0.51401 0.19745
vt 0.51818 0.19033
vt 0.52196 0.19283
vt 0.51261 0.19560
vt 0.53031 0.18365
vt 0.52988 0.16478
vt 0.53536 0.16635
vt 0.52551 0.17530
vt 0.53241 0.17588
vt 0.57199 0.19468
vt 0.57199 0.20553
vt 0.50637 0.19985
vt 0.63260 0.19476
vt 0.61250 0.15157
vt 0.61878 0.16230
vt 0.62229 0.17285
vt 0.62476 0.18208
vt 0.62821 0.18884
vt 0.51097 0.19469
vt 0.53147 0.15157
vt 0.52519 0.16230
vt 0.52168 0.17285
vt 0.51921 0.18208
vt 0.51547 0.18907
vt 0.57199 0.13197
vt 0.57177 0.08197
vt 0.56076 0.07575
vt 0.57199 0.03739
vt 0.58296 0.07575
# 95 texture vertices

vn 0.60709 0.77920 0.15583
vn 0.48824 0.87080 0.05763
vn 0.97276 -0.00000 0.23183
vn 0.97041 -0.00000 0.24146
vn 0.96926 0.00315 0.24601
vn -0.48823 0.87097 0.05519
vn -0.60707 0.77987 0.15254
vn -0.97392 -0.00000 0.22688
vn -0.84685 0.52612 0.07774
vn -0.96872 -0.00000 0.24816
vn -0.97050 0.00315 0.24108
vn -0.97163 -0.00000 0.23652
vn -0.55827 0.82876 -0.03868
vn -0.58408 0.81043 -0.04530
vn -0.55845 0.82826 -0.04592
vn -0.63474 0.77143 -0.04474
vn -0.65014 0.75778 -0.05551
vn -0.76965 0.63793 -0.02613
vn 0.58430 0.81043 -0.04233
vn 0.63495 0.77144 -0.04152
vn -0.20681 0.97645 0.06145
vn 0.13547 0.97937 -0.14997
vn -0.72286 0.67620 0.14221
vn -0.69074 0.70350 0.16724
vn -0.61559 0.73807 0.27623
vn 0.55154 0.82769 0.10359
vn 0.60161 0.77371 0.19860
vn -0.88415 -0.00000 -0.46721
vn -0.34914 0.88289 -0.31402
vn 0.21981 0.94393 -0.24632
vn -0.10166 0.99327 -0.05557
vn 0.03676 0.94727 -0.31833
vn 0.00191 0.99754 -0.07010
vn 0.03834 0.98002 -0.19516
vn -0.76218 0.64011 0.09666
vn -0.46480 0.83798 0.28591
vn 0.22433 0.96035 -0.16553
vn -0.09446 0.99552 0.00476
vn -0.04953 0.99564 -0.07902
vn 0.22672 0.89262 -0.38965
vn 0.16021 0.84762 -0.50583
vn -0.01948 0.99942 -0.02778
vn 0.17984 0.96149 -0.20781
vn 0.16473 0.98631 0.00704
vn 0.21996 0.97031 -0.10058
vn -0.03103 0.99952 0.00091
vn -0.06007 0.99785 0.02640
vn 0.20667 0.97689 -0.05449
vn 0.20665 0.97641 0.06257
vn -0.13471 0.97936 -0.15067
vn 0.72218 0.67615 0.14586
vn 0.61439 0.73786 0.27945
vn 0.68998 0.70338 0.17082
vn -0.60179 0.77441 0.19527
vn -0.55147 0.82809 0.10074
vn 0.88648 -0.00000 -0.46277
vn 0.60648 0.74287 -0.28341
vn -0.21854 0.94394 -0.24743
vn 0.19616 0.98035 0.02096
vn -0.03515 0.94727 -0.31851
vn -0.03735 0.98002 -0.19534
vn -0.00155 0.99754 -0.07011
vn 0.76190 0.63984 0.10056
vn 0.46334 0.83798 0.28828
vn -0.22348 0.96036 -0.16666
vn 0.09444 0.99552 0.00524
vn -0.17877 0.96150 -0.20872
vn 0.01963 0.99942 -0.02768
vn -0.22474 0.89262 -0.39080
vn -0.08653 0.97158 -0.22033
vn -0.16476 0.98631 0.00620
vn -0.21946 0.97031 -0.10170
vn 0.03103 0.99952 0.00107
vn -0.20640 0.97689 -0.05554
vn 0.05994 0.99784 0.02671
vn 0.96926 -0.00315 0.24601
vn -0.84685 -0.52612 0.07774
vn -0.97050 -0.00315 0.24108
vn -0.55868 -0.82742 -0.05702
vn -0.77414 -0.63279 -0.01699
vn -0.64960 -0.75736 -0.06648
vn 0.00024 -0.99557 -0.09398
vn -0.20681 -0.97645 0.06145
vn 0.13547 -0.97937 -0.14997
vn -0.69074 -0.70350 0.16724
vn 0.55154 -0.82769 0.10359
vn -0.19616 -0.98037 0.01992
vn 0.00191 -0.99754 -0.07010
vn -0.09446 -0.99552 0.00476
vn 0.08765 -0.97158 -0.21989
vn -0.01948 -0.99942 -0.02778
vn -0.03103 -0.99952 0.00091
vn -0.06007 -0.99785 0.02640
vn 0.20665 -0.97641 0.06257
vn -0.13471 -0.97936 -0.15067
vn 0.68998 -0.70338 0.17082
vn -0.55148 -0.82808 0.10074
vn 0.10193 -0.99327 -0.05502
vn -0.00155 -0.99754 -0.07011
vn 0.09444 -0.99552 0.00524
vn 0.04993 -0.99564 -0.07877
vn 0.01963 -0.99942 -0.02768
vn 0.03103 -0.99952 0.00107
vn 0.05994 -0.99784 0.02671
vn -0.15763 -0.84762 -0.50664
vn -0.40940 0.85455 0.31959
vn -0.30130 0.93849 0.16870
vn -0.23400 0.96654 0.10510
vn -0.27425 0.95728 0.09165
vn -0.30270 0.94233 0.14278
vn -0.33447 0.90392 0.26656
vn 0.40777 0.85455 0.32166
vn 0.30043 0.93849 0.17023
vn 0.23346 0.96654 0.10629
vn 0.27379 0.95728 0.09304
vn 0.30197 0.94233 0.14432
vn 0.33311 0.90392 0.26825
vn 0.08375 -0.99648 0.00311
vn 0.00072 -1.00000 0.00301
vn 0.00128 -0.99886 -0.04765
vn 0.00016 -0.99857 0.05342
vn 0.99893 0.00000 0.04634
vn -0.99918 0.00000 0.04042
vn -0.99918 0.00000 0.04042
vn 0.99893 0.00000 0.04634
vn -0.99918 0.00000 0.04042
vn 0.00072 1.00000 0.00301
vn 0.55846 0.82876 -0.03584
vn 0.55868 0.82826 -0.04308
vn 0.65041 0.75779 -0.05220
vn 0.76974 0.63797 -0.02222
vn 0.96744 -0.00000 0.25308
vn 0.84643 0.52614 0.08204
vn -0.09280 0.99561 0.01250
vn 0.34349 0.92128 0.18234
vn -0.76641 0.49859 -0.40500
vn 0.18682 0.93510 -0.30113
vn -0.74699 0.65799 0.09512
vn -0.76251 0.64280 0.07343
vn 0.39037 0.92049 0.01775
vn -0.57594 0.73924 0.34903
vn 0.09270 0.99561 0.01297
vn -0.34444 0.92128 0.18058
vn 0.76844 0.49857 -0.40115
vn -0.18531 0.93513 -0.30200
vn 0.74665 0.65782 0.09890
vn 0.76237 0.64251 0.07733
vn -0.39042 0.92050 0.01584
vn -0.21430 0.93243 -0.29093
vn -0.57346 -0.81661 -0.06551
vn -0.55827 -0.82876 -0.03868
vn -0.66427 -0.74626 -0.04293
vn 0.57379 -0.81661 -0.06259
vn 0.55846 -0.82876 -0.03584
vn 0.55896 -0.82742 -0.05418
vn 0.64992 -0.75737 -0.06317
vn 0.66446 -0.74628 -0.03955
vn 0.77418 -0.63283 -0.01305
vn 0.84643 -0.52614 0.08204
vn -0.09280 -0.99561 0.01250
vn 0.34349 -0.92128 0.18234
vn -0.61559 -0.73807 0.27623
vn -0.72286 -0.67621 0.14221
vn 0.60161 -0.77371 0.19860
vn 0.60709 -0.77920 0.15583
vn -0.76641 -0.49859 -0.40500
vn -0.34914 -0.88289 -0.31402
vn 0.18682 -0.93510 -0.30113
vn 0.21981 -0.94393 -0.24632
vn 0.03834 -0.98002 -0.19516
vn 0.03676 -0.94727 -0.31833
vn -0.74699 -0.65799 0.09512
vn -0.76218 -0.64011 0.09666
vn -0.76251 -0.64280 0.07343
vn 0.48824 -0.87080 0.05763
vn 0.39037 -0.92049 0.01775
vn -0.46480 -0.83798 0.28591
vn 0.22433 -0.96035 -0.16553
vn 0.22672 -0.89262 -0.38965
vn 0.16021 -0.84762 -0.50583
vn 0.17984 -0.96149 -0.20781
vn 0.16473 -0.98631 0.00704
vn 0.21996 -0.97031 -0.10058
vn 0.20667 -0.97689 -0.05449
vn 0.09270 -0.99561 0.01298
vn -0.34444 -0.92128 0.18058
vn 0.61439 -0.73786 0.27945
vn 0.72218 -0.67615 0.14586
vn -0.60179 -0.77441 0.19527
vn -0.60707 -0.77987 0.15254
vn 0.35073 -0.88289 -0.31224
vn 0.76844 -0.49857 -0.40115
vn -0.18531 -0.93513 -0.30200
vn -0.21854 -0.94394 -0.24743
vn -0.03735 -0.98002 -0.19534
vn -0.03515 -0.94727 -0.31851
vn 0.74665 -0.65782 0.09890
vn 0.76190 -0.63984 0.10056
vn 0.76237 -0.64251 0.07733
vn -0.48823 -0.87097 0.05519
vn -0.39042 -0.92050 0.01584
vn 0.57471 -0.73877 0.35203
vn 0.46334 -0.83798 0.28828
vn -0.22348 -0.96036 -0.16666
vn -0.22474 -0.89262 -0.39079
vn -0.17877 -0.96150 -0.20872
vn -0.16476 -0.98631 0.00620
vn -0.21946 -0.97031 -0.10170
vn -0.20640 -0.97689 -0.05554
vn -0.15763 0.84762 -0.50664
vn -0.40857 0.85445 0.32092
vn 0.40693 0.85445 0.32299
vn -0.40940 -0.85455 0.31959
vn -0.40857 -0.85445 0.32092
vn -0.30130 -0.93849 0.16870
vn -0.23400 -0.96654 0.10510
vn -0.27425 -0.95728 0.09165
vn -0.30270 -0.94233 0.14278
vn -0.33447 -0.90392 0.26656
vn 0.40693 -0.85445 0.32299
vn 0.40777 -0.85455 0.32166
vn 0.30043 -0.93849 0.17023
vn 0.23346 -0.96654 0.10629
vn 0.27379 -0.95728 0.09304
vn 0.30197 -0.94233 0.14432
vn 0.33311 -0.90392 0.26825
vn 0.95904 0.00000 0.28327
vn 0.99893 0.00000 0.04634
vn -0.96209 0.00000 0.27272
vn -0.08231 -0.99660 0.00289
vn 0.98115 0.00000 -0.19326
vn -0.98098 0.00000 -0.19412
vn 0.08375 0.99648 0.00311
vn 0.00016 0.99857 0.05342
vn 0.00128 0.99886 -0.04765
vn -0.08231 0.99660 0.00289
# 236 normal vertices

g model
usemtl lambert2SG
f 3/3/3 4/2/4 5/1/5
f 9/6/9 10/5/10 11/4/11
f 11/4/11 10/5/10 12/7/12
f 13/10/13 14/9/14 15/8/15
f 14/9/14 16/12/16 17/11/17
f 17/11/17 16/12/16 18/13/18
f 15/8/15 14/9/14 17/11/17
f 15/8/129 19/14/19 13/10/128
f 18/13/131 20/15/20 17/11/130
f 17/11/130 20/15/20 19/14/19
f 15/8/129 17/11/130 19/14/19
f 4/2/4 10/5/132 5/1/5
f 5/1/5 10/5/132 9/6/133
f 11/4/11 12/7/12 8/16/8
f 3/3/135 5/1/134 21/17/21
f 21/17/21 5/1/134 22/18/22
f 23/21/23 24/20/24 25/19/25
f 25/19/25 24/20/24 21/17/21
f 1/24/1 26/23/26 27/22/27
f 28/26/28 22/18/136 29/25/29
f 30/28/30 31/27/31 28/26/137
f 28/26/137 31/27/31 21/17/21
f 32/31/32 33/30/33 34/29/34
f 35/32/35 26/23/138 23/21/23
f 23/21/23 26/23/138 24/20/24
f 27/22/139 26/23/138 35/32/35
f 24/20/140 26/23/26 2/33/2
f 2/33/2 26/23/26 1/24/1
f 16/12/16 29/25/29 5/1/134
f 5/1/134 29/25/29 22/18/22
f 21/17/21 31/27/141 25/19/25
f 25/19/25 31/27/31 36/34/36
f 37/36/37 38/35/38 30/28/30
f 30/28/30 38/35/38 31/27/31
f 39/39/39 40/38/40 41/37/41
f 39/39/39 42/40/42 40/38/40
f 40/38/40 42/40/42 43/41/43
f 42/40/42 33/30/33 43/41/43
f 43/41/43 33/30/33 32/31/32
f 34/29/34 33/30/33 44/42/44
f 45/44/45 46/43/46 37/36/37
f 37/36/37 46/43/46 38/35/38
f 33/30/33 47/45/47 44/42/44
f 44/42/44 47/45/47 48/46/48
f 47/45/47 46/43/46 48/46/48
f 48/46/48 46/43/46 45/44/45
f 21/17/21 24/20/140 3/3/135
f 3/3/135 24/20/140 2/33/2
f 21/17/21 22/18/136 28/26/28
f 8/16/143 49/47/49 11/4/142
f 11/4/142 49/47/49 50/48/50
f 51/51/51 52/50/52 53/49/53
f 53/49/53 52/50/52 49/47/49
f 7/54/7 54/53/54 55/52/55
f 56/56/56 57/55/57 50/48/144
f 58/58/58 56/56/145 59/57/59
f 59/57/59 56/56/145 49/47/49
f 60/61/60 61/60/61 62/59/62
f 63/62/63 51/51/51 55/52/146
f 55/52/146 51/51/51 53/49/53
f 54/53/147 63/62/63 55/52/146
f 7/54/7 55/52/55 6/63/6
f 6/63/6 55/52/55 53/49/148
f 50/48/50 57/55/149 11/4/142
f 11/4/142 57/55/57 20/15/20
f 64/64/64 59/57/59 52/50/52
f 52/50/52 59/57/59 49/47/49
f 65/66/65 58/58/58 66/65/66
f 66/65/66 58/58/58 59/57/59
f 67/69/67 68/68/68 69/67/69
f 69/67/69 68/68/68 70/70/70
f 60/61/60 62/59/62 67/69/67
f 67/69/67 62/59/62 68/68/68
f 61/60/61 71/71/71 62/59/62
f 72/73/72 65/66/65 73/72/73
f 73/72/73 65/66/65 66/65/66
f 74/75/74 75/74/75 71/71/71
f 71/71/71 75/74/75 62/59/62
f 72/73/72 73/72/73 74/75/74
f 74/75/74 73/72/73 75/74/75
f 6/63/6 53/49/148 8/16/143
f 8/16/143 53/49/148 49/47/49
f 49/47/49 56/56/56 50/48/144
f 5/1/134 9/6/9 16/12/16
f 11/4/142 20/15/20 9/6/133
f 16/12/16 9/6/9 18/13/18
f 18/13/131 9/6/133 20/15/20
f 76/1/76 4/2/4 3/3/3
f 77/6/77 78/4/78 10/5/10
f 10/5/10 78/4/78 12/7/12
f 13/10/151 79/8/79 14/9/150
f 80/13/80 16/12/152 81/76/81
f 81/76/81 16/12/152 14/9/150
f 82/77/82 81/76/81 14/9/150
f 79/8/79 82/77/82 14/9/150
f 79/8/155 13/10/154 19/14/153
f 19/14/153 20/15/157 81/76/156
f 81/76/156 20/15/157 80/13/158
f 82/77/82 19/14/153 81/76/156
f 79/8/155 19/14/153 82/77/82
f 77/6/159 10/5/132 76/1/76
f 76/1/76 10/5/132 4/2/4
f 78/4/78 8/16/8 12/7/12
f 3/3/161 83/17/83 76/1/160
f 76/1/160 83/17/83 84/18/84
f 23/21/163 25/19/162 85/20/85
f 85/20/85 25/19/162 83/17/83
f 1/24/165 27/22/164 86/23/86
f 28/26/28 29/25/167 84/18/166
f 30/28/169 28/26/168 87/27/87
f 87/27/87 28/26/168 83/17/83
f 32/31/171 34/29/170 88/30/88
f 35/32/173 23/21/163 86/23/172
f 86/23/172 23/21/163 85/20/85
f 27/22/174 35/32/173 86/23/172
f 1/24/165 86/23/86 2/33/175
f 2/33/175 86/23/86 85/20/176
f 16/12/152 76/1/160 29/25/167
f 29/25/167 76/1/160 84/18/84
f 36/34/177 87/27/87 25/19/162
f 25/19/162 87/27/87 83/17/83
f 37/36/178 30/28/169 89/35/89
f 89/35/89 30/28/169 87/27/87
f 90/39/90 41/37/180 40/38/179
f 43/41/181 91/40/91 40/38/179
f 40/38/179 91/40/91 90/39/90
f 32/31/171 88/30/88 43/41/181
f 43/41/181 88/30/88 91/40/91
f 34/29/170 44/42/182 88/30/88
f 45/44/183 37/36/178 92/43/92
f 92/43/92 37/36/178 89/35/89
f 48/46/184 93/45/93 44/42/182
f 44/42/182 93/45/93 88/30/88
f 45/44/183 92/43/92 48/46/184
f 48/46/184 92/43/92 93/45/93
f 2/33/175 85/20/176 3/3/161
f 3/3/161 85/20/176 83/17/83
f 83/17/83 28/26/28 84/18/166
f 8/16/186 78/4/185 94/47/94
f 94/47/94 78/4/185 95/48/95
f 51/51/188 96/49/96 52/50/187
f 52/50/187 96/49/96 94/47/94
f 7/54/190 97/52/97 54/53/189
f 56/56/56 95/48/192 57/55/191
f 58/58/194 98/57/98 56/56/193
f 56/56/193 98/57/98 94/47/94
f 60/61/196 99/59/99 61/60/195
f 63/62/198 97/52/197 51/51/188
f 51/51/188 97/52/197 96/49/96
f 54/53/199 97/52/197 63/62/198
f 96/49/201 97/52/97 6/63/200
f 6/63/200 97/52/97 7/54/190
f 20/15/157 57/55/191 78/4/185
f 78/4/185 57/55/191 95/48/95
f 94/47/94 98/57/202 52/50/187
f 52/50/187 98/57/98 64/64/203
f 65/66/204 100/65/100 58/58/194
f 58/58/194 100/65/100 98/57/98
f 101/70/101 102/68/102 69/67/205
f 69/67/205 102/68/102 67/69/206
f 102/68/102 99/59/99 67/69/206
f 67/69/206 99/59/99 60/61/196
f 61/60/195 99/59/99 71/71/207
f 72/73/208 103/72/103 65/66/204
f 65/66/204 103/72/103 100/65/100
f 99/59/99 104/74/104 71/71/207
f 71/71/207 104/74/104 74/75/209
f 104/74/104 103/72/103 74/75/209
f 74/75/209 103/72/103 72/73/208
f 94/47/94 96/49/201 8/16/186
f 8/16/186 96/49/201 6/63/200
f 94/47/94 95/48/192 56/56/56
f 76/1/160 16/12/152 77/6/77
f 78/4/185 77/6/159 20/15/157
f 16/12/152 80/13/80 77/6/77
f 80/13/158 20/15/157 77/6/159
f 105/78/105 101/70/101 69/67/205
f 105/78/210 69/67/69 70/70/70
f 106/79/106 39/39/211 41/37/211
f 31/27/31 38/35/38 36/34/36
f 36/34/36 38/35/38 107/80/107
f 38/35/38 46/43/46 107/80/107
f 107/80/107 46/43/46 108/81/108
f 108/81/108 46/43/46 109/82/109
f 109/82/109 46/43/46 47/45/47
f 109/82/109 47/45/47 110/83/110
f 110/83/110 47/45/47 33/30/33
f 33/30/33 42/40/42 110/83/110
f 110/83/110 42/40/42 111/84/111
f 42/40/42 39/39/39 111/84/111
f 111/84/111 39/39/39 106/79/106
f 112/85/112 105/78/212 70/70/112
f 113/86/113 66/65/66 64/64/64
f 64/64/64 66/65/66 59/57/59
f 114/87/114 73/72/73 113/86/113
f 113/86/113 73/72/73 66/65/66
f 114/87/114 115/88/115 73/72/73
f 73/72/73 115/88/115 75/74/75
f 115/88/115 116/89/116 75/74/75
f 75/74/75 116/89/116 62/59/62
f 117/90/117 68/68/68 116/89/116
f 116/89/116 68/68/68 62/59/62
f 112/85/112 70/70/112 117/90/117
f 117/90/117 70/70/70 68/68/68
f 106/79/213 41/37/214 90/39/213
f 107/80/215 89/35/89 36/34/177
f 36/34/177 89/35/89 87/27/87
f 108/81/216 92/43/92 107/80/215
f 107/80/215 92/43/92 89/35/89
f 108/81/216 109/82/217 92/43/92
f 92/43/92 109/82/217 93/45/93
f 109/82/217 110/83/218 93/45/93
f 93/45/93 110/83/218 88/30/88
f 111/84/219 91/40/91 110/83/218
f 110/83/218 91/40/91 88/30/88
f 106/79/213 90/39/213 111/84/219
f 111/84/219 90/39/90 91/40/91
f 112/85/221 101/70/220 105/78/220
f 98/57/98 100/65/100 64/64/203
f 64/64/203 100/65/100 113/86/222
f 100/65/100 103/72/103 113/86/222
f 113/86/222 103/72/103 114/87/223
f 114/87/223 103/72/103 115/88/224
f 115/88/224 103/72/103 104/74/104
f 115/88/224 104/74/104 116/89/225
f 116/89/225 104/74/104 99/59/99
f 99/59/99 102/68/102 116/89/225
f 116/89/225 102/68/102 117/90/226
f 102/68/102 101/70/101 117/90/226
f 117/90/226 101/70/101 112/85/221
f 118/93/118 119/92/119 120/91/120
f 121/94/121 119/92/119 118/93/118
f 118/93/228 122/93/122 121/94/227
f 121/94/229 123/95/123 124/95/124
f 119/92/119 121/94/121 124/95/230
f 120/91/120 119/92/119 124/95/230
f 122/93/122 118/93/228 120/91/231
f 120/91/232 124/95/124 123/95/123
f 121/94/227 122/93/122 125/93/125
f 121/94/229 126/95/126 123/95/123
f 120/91/232 123/95/123 126/95/126
f 120/91/231 125/93/125 122/93/122
f 127/92/127 121/94/234 125/93/233
f 120/91/235 127/92/127 125/93/233
f 127/92/127 120/91/235 126/95/236
f 121/94/234 127/92/127 126/95/236
# 246 elements

