# Created by Metasequoia

mtllib htods.mtl

v 0.774983 2.157237 17.686356
v 0.774983 -1.152069 17.686356
v 0.806440 -0.813744 27.318687
v 0.806440 1.818912 27.318687
v 0.130107 -1.152069 17.686356
v 0.130107 2.157237 17.686356
v 0.098650 1.818912 27.318687
v 0.098650 -0.813744 27.318687
v 0.098650 0.502584 32.889153
v 0.806441 0.502584 32.889153
v 0.774982 2.157237 5.768352
v 0.774982 -1.152069 5.768352
v 0.130106 -1.152069 5.768352
v 0.130106 2.157237 5.768352
v 0.774982 2.157237 -13.066929
v 0.774982 -1.152069 -13.066929
v 0.130105 -1.152069 -13.066929
v 0.130105 2.157237 -13.066929
v 0.452545 -1.713825 17.686356
v 0.452545 -1.260632 27.318687
v 0.452545 2.265800 27.318687
v 0.452545 2.718992 17.686356
v 0.452546 0.502584 34.379417
v 0.452544 -1.713825 5.768352
v 0.452544 2.718992 5.768352
v 0.452544 -1.713825 -13.066929
v 0.452544 2.718992 -13.066929
v 0.952543 1.353064 -15.791507
v 0.952543 1.353064 -33.513386
v 0.952543 -0.648850 -33.513386
v 0.952543 -0.648850 -15.791507
v -0.047457 1.353064 -15.791507
v -0.047457 1.353064 -33.513386
v -0.047457 -0.648850 -15.791507
v -0.047457 -0.648850 -33.513386
v -0.434102 -0.531796 -33.396072
v -0.434102 1.243812 -34.289463
v -0.434102 1.204658 -33.325542
v -0.434102 -0.492642 -34.359989
v 0.860448 -1.010141 -33.415508
v 0.044638 -0.970989 -34.379417
v 0.044638 -1.010141 -33.415508
v 0.860448 -0.970989 -34.379417
v 1.339188 1.204658 -33.325542
v 1.339188 -0.492642 -34.359989
v 1.339188 -0.531796 -33.396072
v 1.339188 1.243812 -34.289463
v 0.044638 1.683004 -33.306110
v 0.860448 1.722157 -34.270027
v 0.860448 1.683004 -33.306110
v 0.044638 1.722157 -34.270027
v -1.164541 -1.029898 -13.140640
v -1.164541 0.468036 -13.485905
v -1.164541 0.468036 -13.140640
v -1.164541 -1.029898 -13.485905
v 0.840538 -4.569889 -13.140640
v 0.064549 -4.569889 -13.485905
v 0.064549 -4.569889 -13.140640
v 0.840538 -4.569889 -13.485905
v 2.069629 0.468036 -13.140640
v 2.069629 -1.029898 -13.485905
v 2.069629 -1.029898 -13.140640
v 2.069629 0.468036 -13.485905
v 0.064549 5.228295 -13.140640
v 0.840538 5.228295 -13.485905
v 0.840538 5.228295 -13.140640
v 0.064549 5.228295 -13.485905
v -1.164541 2.010840 -13.485905
v -1.164541 2.010840 -13.140640
v 2.069629 2.010840 -13.485905
v 2.069629 2.010840 -13.140640
v -0.661132 2.568299 -13.485905
v -0.661132 2.568299 -13.140640
v 1.566220 2.568298 -13.485905
v 1.566220 2.568298 -13.140640
v -0.297865 3.323358 -13.485905
v -0.297865 3.323358 -13.140640
v 1.202953 3.323358 -13.485905
v 1.202953 3.323358 -13.140640
v 1.566220 -1.546734 -13.485905
v 1.566220 -1.546734 -13.140640
v -0.661132 -1.546734 -13.485905
v -0.661132 -1.546734 -13.140640
v 1.202953 -2.430185 -13.485905
v 1.202953 -2.430185 -13.140640
v -0.297865 -2.430185 -13.485905
v -0.297865 -2.430185 -13.140640
v 0.941953 -4.360170 -13.485905
v 0.941953 -4.360170 -13.140640
v -0.036865 -4.360170 -13.485905
v -0.036865 -4.360170 -13.140640
v -0.036865 5.046993 -13.485905
v -0.036865 5.046993 -13.140640
v 0.941953 5.046993 -13.485905
v 0.941953 5.046993 -13.140640
v -0.110225 0.472651 -9.325153
v -0.246887 0.567628 -9.354464
v -0.101803 0.722550 -9.402272
v -0.246887 0.472651 -9.325153
v -0.246887 0.377675 -9.354464
v -0.101803 0.222753 -9.402272
v 1.151975 0.081369 -11.152049
v 1.006891 0.222753 -9.402272
v 1.151975 0.377675 -9.354464
v 1.006891 -0.054914 -11.086781
v 1.151975 -0.548100 -11.855572
v 1.006891 -0.684289 -11.790201
v 1.006891 -0.739824 -12.123398
v 1.151975 -0.608541 -12.218212
v 1.151975 -1.794174 -13.199425
v 1.006891 -2.109642 -13.201687
v 1.006891 0.722550 -9.402272
v 1.151975 0.863934 -11.152049
v 1.151975 0.567628 -9.354464
v 1.006891 1.000216 -11.086781
v 1.151975 1.493404 -11.855572
v 1.006891 1.629592 -11.790201
v 1.006891 1.685126 -12.123398
v 1.151975 1.553843 -12.218212
v 1.151975 2.739476 -13.199425
v 1.006891 3.054945 -13.201687
v -0.101803 -0.054914 -11.086781
v -0.246887 -0.548100 -11.855572
v -0.246887 0.081369 -11.152049
v -0.101803 -0.684289 -11.790201
v -0.101803 1.685126 -12.123398
v -0.246887 1.493404 -11.855572
v -0.246887 1.553843 -12.218212
v -0.101803 1.629592 -11.790201
v -0.246887 2.739476 -13.199425
v -0.101803 3.054945 -13.201687
v -0.101803 -0.739824 -12.123398
v -0.246887 -0.608541 -12.218212
v -0.246887 0.863934 -11.152049
v -0.101803 1.000216 -11.086781
v -0.246887 -1.794174 -13.199425
v -0.101803 -2.109642 -13.201687
v -0.246887 0.472651 -11.086782
v -0.246887 0.472651 -13.183176
v -0.246887 0.472652 -12.123398
v -0.246887 0.472651 -11.790201
v 1.151975 0.472651 -11.086782
v 1.151975 0.472651 -9.325153
v 1.151975 0.472651 -13.183176
v 1.151975 0.472652 -12.123398
v 1.151975 0.472651 -11.790201
v 1.050100 0.472651 -9.325153
v -0.418450 1.548959 -15.814461
v -0.244268 1.749242 -13.361725
v -0.418450 1.548959 -13.361725
v -0.244268 1.749242 -15.814461
v 1.149355 1.548959 -16.034164
v -0.244268 1.548959 -16.034164
v 1.149355 1.749242 -15.814461
v -0.418450 -0.867711 -15.814461
v -0.244268 -0.867711 -16.034164
v -0.244268 -1.067995 -15.814461
v -0.418450 -0.867711 -13.361725
v -0.244268 -1.067995 -13.361725
v 1.149355 -1.067995 -15.814461
v 1.149355 -0.867711 -16.034164
v 1.323537 -0.867711 -15.814461
v 1.149356 -1.067995 -13.361725
v 1.323538 -0.867711 -13.361725
v 1.323537 1.548959 -15.814461
v 1.323538 1.548959 -13.361725
v 1.149356 1.749242 -13.361725
# 167 vertices

vt 0.41220 0.75000
vt 0.38740 0.58333
vt 0.41220 0.25000
vt 0.41220 0.00000
vt 0.37500 0.12500
vt 0.66872 0.04326
vt 0.61175 0.01163
vt 0.61175 0.04326
vt 0.66872 0.01163
vt 0.71766 0.04326
vt 0.69092 0.01163
vt 0.69092 0.04326
vt 0.71766 0.01163
vt 0.79683 0.04326
vt 0.73986 0.01163
vt 0.73986 0.04326
vt 0.79683 0.01163
vt 0.84577 0.04326
vt 0.81902 0.01163
vt 0.81902 0.04326
vt 0.84577 0.01163
vt 0.88276 0.14838
vt 0.90690 0.03705
vt 0.88276 0.06109
vt 0.94803 0.03705
vt 0.97217 0.06109
vt 0.97217 0.14838
vt 0.94803 0.17242
vt 0.90690 0.17242
vt 0.97217 0.15265
vt 0.94803 0.04132
vt 0.97217 0.06536
vt 0.90690 0.04132
vt 0.88276 0.06536
vt 0.88276 0.15265
vt 0.90690 0.17669
vt 0.94803 0.17669
vt 0.58955 0.04326
vt 0.58955 0.01163
vt 0.18859 0.37144
vt 0.18859 0.33536
vt 0.23688 0.45670
vt 0.21819 0.45670
vt 0.26649 0.33536
vt 0.26649 0.37144
vt 0.21819 0.22070
vt 0.23688 0.22070
vt 0.18859 0.29820
vt 0.26649 0.29820
vt 0.20071 0.28477
vt 0.25436 0.28477
vt 0.20946 0.26658
vt 0.24561 0.26658
vt 0.25436 0.38389
vt 0.20071 0.38389
vt 0.24561 0.40517
vt 0.20946 0.40517
vt 0.23932 0.45165
vt 0.21575 0.45165
vt 0.21575 0.22507
vt 0.23932 0.22507
vt 0.12229 0.63627
vt 0.11842 0.63507
vt 0.11212 0.63313
vt 0.12615 0.63507
vt 0.13245 0.63313
vt 0.13821 0.56193
vt 0.14375 0.56458
vt 0.16382 0.53330
vt 0.16936 0.53596
vt 0.17162 0.52240
vt 0.16628 0.51854
vt 0.21453 0.48851
vt 0.22736 0.48842
vt 0.10636 0.56193
vt 0.10082 0.56458
vt 0.08075 0.53330
vt 0.07521 0.53596
vt 0.07295 0.52240
vt 0.07829 0.51854
vt 0.03004 0.48851
vt 0.01721 0.48842
vt 0.12229 0.56458
vt 0.12229 0.48917
vt 0.12229 0.52240
vt 0.12229 0.53596
vt 0.07997 0.08162
vt 0.04749 0.03109
vt 0.04149 0.03593
vt 0.08671 0.07619
vt 0.13579 0.08318
vt 0.08781 0.08318
vt 0.13686 0.07638
vt 0.07991 0.13669
vt 0.08764 0.13514
vt 0.08667 0.14194
vt 0.04259 0.18308
vt 0.04868 0.18779
vt 0.13722 0.14213
vt 0.13621 0.13514
vt 0.14396 0.13670
vt 0.17638 0.18723
vt 0.18239 0.18240
vt 0.14362 0.08163
vt 0.18088 0.03524
vt 0.17478 0.03053
vt 0.02090 0.13657
vt 0.02072 0.08236
vt 0.13683 0.20047
vt 0.08653 0.20020
vt 0.20283 0.08175
vt 0.20313 0.13596
vt 0.08703 0.01785
vt 0.13722 0.01812
vt 0.46296 0.25000
vt 0.46296 0.00000
vt 0.46296 0.75000
vt 0.46296 0.50000
vt 0.52575 0.25000
vt 0.57538 0.00000
vt 0.52575 0.75000
vt 0.52575 0.50000
vt 0.62500 0.25000
vt 0.62500 0.75000
vt 0.62500 0.50000
vt 0.39360 0.37500
vt 0.46296 0.37500
vt 0.41220 0.87500
vt 0.46296 0.87500
vt 0.37500 0.87500
vt 0.20833 0.08333
vt 0.67525 0.00000
vt 0.52575 0.37500
vt 0.52575 0.87500
vt 0.70833 0.33333
vt 0.62500 0.87500
vt 0.37500 0.25000
vt 0.62500 0.00000
vt 0.37500 0.00000
vt 0.37500 0.50000
vt 0.37500 0.75000
vt 0.37500 1.00000
vt 0.62500 1.00000
vt 0.87500 0.25000
vt 0.87500 0.00000
vt 0.12500 0.25000
vt 0.12500 0.00000
# 147 texture vertices

vn 0.95967 0.28107 0.00628
vn 0.94931 -0.31428 0.00586
vn 0.96468 -0.26129 0.03340
vn 0.94389 0.32748 0.04273
vn -0.95967 -0.28107 0.00628
vn -0.94931 0.31428 0.00586
vn -0.96468 0.26129 0.03340
vn -0.94389 -0.32748 0.04273
vn -0.88188 0.45811 0.11148
vn 0.88188 -0.45811 0.11148
vn 0.96625 0.25760 -0.00000
vn 0.96625 -0.25760 -0.00000
vn -0.96625 -0.25760 0.00000
vn -0.96625 0.25760 0.00000
vn 0.96625 0.25760 -0.00000
vn 0.96625 -0.25760 -0.00000
vn -0.96625 -0.25760 0.00000
vn -0.96625 0.25760 0.00000
vn 0.86723 -0.49777 0.01171
vn 0.78992 -0.60659 0.08989
vn 0.78992 0.60659 0.08989
vn 0.86726 0.49779 0.00781
vn 0.71416 -0.67913 0.16959
vn 0.86729 -0.49781 -0.00000
vn 0.86729 0.49781 -0.00000
vn 0.86729 -0.49781 -0.00000
vn 0.00000 0.00000 -1.00000
vn 1.00000 0.00000 -0.00000
vn 0.00000 1.00000 0.00000
vn -1.00000 0.00000 0.00000
vn -0.92388 -0.38237 -0.01553
vn -0.92388 0.38237 0.01553
vn -0.92388 0.38237 0.01553
vn -0.92388 -0.38237 -0.01553
vn 0.38268 -0.92312 -0.03750
vn -0.38268 -0.92312 -0.03750
vn -0.38268 -0.92312 -0.03750
vn 0.38268 -0.92312 -0.03750
vn 0.92388 0.38237 0.01553
vn 0.92388 -0.38237 -0.01553
vn 0.92388 -0.38237 -0.01553
vn 0.92388 0.38237 0.01553
vn -0.38268 0.92312 0.03750
vn 0.38268 0.92312 0.03750
vn 0.38268 0.92312 0.03750
vn -0.38268 0.92312 0.03750
vn -0.96856 -0.24879 -0.00000
vn -1.00000 -0.00000 -0.00000
vn -0.86742 -0.49758 0.00000
vn 0.00000 -1.00000 0.00000
vn 1.00000 0.00000 0.00000
vn 0.96856 -0.24879 0.00000
vn 0.86742 -0.49758 0.00000
vn -0.97141 0.23742 0.00000
vn -0.88007 0.47484 0.00000
vn 0.97141 0.23742 0.00000
vn -0.80244 0.59674 0.00000
vn -0.85591 0.51713 0.00000
vn 0.80244 0.59674 0.00000
vn -0.93959 0.34231 0.00000
vn -0.96908 0.24676 0.00000
vn 0.93959 0.34231 0.00000
vn 0.79876 -0.60165 0.00000
vn 0.86941 -0.49409 0.00000
vn -0.79876 -0.60165 0.00000
vn 0.95382 -0.30038 0.00000
vn 0.97602 -0.21769 0.00000
vn -0.95382 -0.30038 0.00000
vn 0.97149 -0.23708 0.00000
vn 0.94091 -0.33865 0.00000
vn -0.97149 -0.23708 0.00000
vn -0.96387 0.26636 0.00000
vn -0.92465 0.38082 0.00000
vn 0.96387 0.26636 0.00000
vn -0.00000 0.00000 1.00000
vn -0.00000 0.29488 0.95553
vn -0.00000 0.29488 0.95553
vn 0.00000 0.00000 1.00000
vn -0.00000 -0.29488 0.95553
vn -0.00000 -0.29488 0.95553
vn 0.92861 -0.34857 0.12720
vn 0.38268 -0.91158 0.15026
vn 0.96754 -0.24936 0.04110
vn 0.39455 -0.78653 0.47507
vn 0.90639 -0.38084 0.18280
vn 0.31583 -0.88046 0.35360
vn 0.48443 -0.72678 0.48696
vn 0.95979 -0.24434 0.13822
vn 0.89266 -0.28337 0.35052
vn 0.44711 -0.55326 0.70285
vn 0.50545 0.85137 0.14034
vn 0.92861 0.34857 0.12720
vn 0.96754 0.24936 0.04110
vn 0.39607 0.83464 0.38277
vn 0.90639 0.38084 0.18280
vn 0.31583 0.82661 0.46580
vn 0.48382 0.78624 0.38437
vn 0.95979 0.24434 0.13822
vn 0.89266 0.28337 0.35052
vn 0.29402 0.59119 0.75103
vn -0.39607 -0.83464 0.38277
vn -0.90639 -0.38084 0.18280
vn -0.92861 -0.34857 0.12720
vn -0.31583 -0.82661 0.46580
vn -0.48443 0.72678 0.48696
vn -0.90639 0.38084 0.18280
vn -0.95979 0.24434 0.13822
vn -0.31583 0.88046 0.35360
vn -0.89266 0.28337 0.35052
vn -0.44711 0.55326 0.70285
vn -0.48382 -0.78624 0.38437
vn -0.95979 -0.24434 0.13822
vn -0.92861 0.34857 0.12720
vn -0.39455 0.78653 0.47507
vn -0.89266 -0.28337 0.35052
vn -0.29402 -0.59119 0.75103
vn 0.00000 0.00000 1.00000
vn -0.91406 0.34703 -0.20993
vn -0.41459 0.91001 0.00000
vn -0.93663 0.35031 0.00000
vn -0.52417 0.82971 -0.19192
vn 0.14667 0.46234 -0.87449
vn -0.24655 0.49579 -0.83271
vn 0.18147 0.92542 -0.33267
vn -0.88043 -0.27047 -0.38947
vn -0.40989 -0.16129 -0.89776
vn -0.48303 -0.86802 -0.11498
vn -0.93663 -0.35031 0.00000
vn -0.41459 -0.91001 0.00000
vn 0.17870 -0.83927 -0.51351
vn 0.24655 -0.49579 -0.83271
vn 0.91406 -0.34703 -0.20993
vn 0.41459 -0.91001 -0.00000
vn 0.93663 -0.35031 -0.00000
vn 0.88043 0.27047 -0.38947
vn 0.93663 0.35031 -0.00000
vn 0.41459 0.91001 -0.00000
vn 0.00000 0.04058 -0.99918
vn 0.00001 0.04058 -0.99918
vn 0.00002 0.04058 -0.99918
vn -0.00000 0.04059 -0.99918
vn -0.00000 0.04059 -0.99918
vn 0.00000 0.04058 -0.99918
vn 0.00000 0.04058 -0.99918
vn 0.00000 0.04058 -0.99918
vn 0.00000 -0.04059 0.99918
vn 0.00000 -0.04058 0.99918
vn 0.00001 -0.04058 0.99918
vn -0.00000 -0.04059 0.99918
vn -0.00000 -0.04059 0.99918
vn 0.00000 -0.04059 0.99918
vn 0.00000 -0.04060 0.99918
vn 0.00000 -0.04060 0.99918
vn 0.88007 0.47484 0.00000
vn 0.85591 0.51713 0.00000
vn 0.96908 0.24676 0.00000
vn -0.86941 -0.49409 0.00000
vn -0.97602 -0.21769 0.00000
vn -0.94091 -0.33865 0.00000
vn 0.92465 0.38082 0.00000
vn -0.87274 0.48818 0.00000
vn -0.87274 0.48818 0.00000
vn 0.87274 0.48819 0.00000
vn 0.90026 -0.43535 0.00000
vn 0.90026 -0.43535 0.00000
vn -0.90026 -0.43535 0.00000
vn -0.50545 -0.85137 0.14034
vn -0.96754 -0.24936 0.04110
vn -0.38268 0.91158 0.15026
vn -0.96754 0.24936 0.04110
vn 0.00000 -0.29488 0.95553
vn 0.00000 0.29488 0.95553
vn 0.00000 -0.29488 0.95553
vn 0.00000 0.29488 0.95553
vn 0.00000 0.73901 -0.67369
vn -0.78361 0.00000 -0.62125
vn 0.00000 -0.73901 -0.67369
vn 0.75456 -0.65623 -0.00000
vn 0.78361 0.00000 -0.62125
vn 0.75456 0.65623 -0.00000
vn 0.74571 0.64738 0.15754
vn 0.71416 0.67913 0.16959
vn 0.86729 0.49781 -0.00000
vn -0.86723 0.49777 0.01171
vn -0.78992 0.60659 0.08989
vn -0.78992 -0.60659 0.08989
vn -0.86726 -0.49779 0.00781
vn -0.71416 0.67913 0.16959
vn -0.74571 -0.64738 0.15754
vn -0.71416 -0.67913 0.16959
vn -0.86729 0.49781 0.00000
vn -0.86729 -0.49781 0.00000
vn -0.86729 0.49781 0.00000
vn -0.86729 -0.49781 0.00000
# 194 normal vertices

g model
usemtl initialShadingGroup
f 9/2/9 7/2/7 8/1/8
f 10/5/10 3/4/3 4/3/4
usemtl lambert9SG
f 38/8/33 37/7/32 36/6/31
f 36/6/31 37/7/32 39/9/34
f 42/12/37 41/11/36 40/10/35
f 40/10/35 41/11/36 43/13/38
f 46/16/41 45/15/40 44/14/39
f 44/14/39 45/15/40 47/17/42
f 50/20/45 49/19/44 48/18/43
f 48/18/43 49/19/44 51/21/46
f 37/24/140 51/23/139 39/22/138
f 51/23/139 49/25/141 39/22/138
f 49/25/141 47/26/142 39/22/138
f 47/26/142 45/27/143 39/22/138
f 45/27/143 43/28/144 39/22/138
f 43/28/144 41/29/145 39/22/138
f 44/32/148 50/31/147 46/30/146
f 50/31/147 48/33/149 46/30/146
f 48/33/149 38/34/150 46/30/146
f 38/34/150 36/35/151 46/30/146
f 36/35/151 42/36/152 46/30/146
f 42/36/152 40/37/153 46/30/146
f 38/8/33 48/38/43 37/7/32
f 37/7/32 48/38/43 51/39/46
f 42/12/37 36/6/31 41/11/36
f 41/11/36 36/6/31 39/9/34
f 46/16/41 40/10/35 45/15/40
f 45/15/40 40/10/35 43/13/38
f 50/20/45 44/14/39 49/19/44
f 49/19/44 44/14/39 47/17/42
f 54/41/48 53/41/48 52/40/47
f 52/40/47 53/41/48 55/40/49
f 58/43/50 57/43/50 56/42/50
f 56/42/50 57/43/50 59/42/50
f 62/45/53 61/45/52 60/44/51
f 60/44/51 61/45/52 63/44/51
f 66/47/29 65/47/29 64/46/29
f 64/46/29 65/47/29 67/46/29
f 53/41/27 63/44/27 55/40/27
f 55/40/27 63/44/27 61/45/27
f 60/44/78 54/41/78 62/45/78
f 62/45/78 54/41/78 52/40/78
f 69/48/55 68/48/54 54/41/48
f 54/41/48 68/48/54 53/41/48
f 68/48/27 70/49/27 53/41/27
f 53/41/27 70/49/27 63/44/27
f 60/44/51 63/44/51 71/49/56
f 71/49/56 63/44/51 70/49/154
f 71/49/78 69/48/78 60/44/78
f 60/44/78 69/48/78 54/41/78
f 73/50/58 72/50/57 69/48/55
f 69/48/55 72/50/57 68/48/54
f 72/50/27 74/51/27 68/48/27
f 68/48/27 74/51/27 70/49/27
f 71/49/56 70/49/154 75/51/59
f 75/51/59 70/49/154 74/51/155
f 75/51/78 73/50/78 71/49/78
f 71/49/78 73/50/78 69/48/78
f 77/52/61 76/52/60 73/50/58
f 73/50/58 76/52/60 72/50/57
f 76/52/27 78/53/27 72/50/27
f 72/50/27 78/53/27 74/51/27
f 75/51/59 74/51/155 79/53/62
f 79/53/62 74/51/155 78/53/156
f 79/53/78 77/52/78 75/51/78
f 75/51/78 77/52/78 73/50/78
f 81/54/64 80/54/63 62/45/53
f 62/45/53 80/54/63 61/45/52
f 55/40/27 61/45/27 82/55/27
f 82/55/27 61/45/27 80/54/27
f 52/40/47 55/40/49 83/55/65
f 83/55/65 55/40/49 82/55/157
f 62/45/78 52/40/78 81/54/78
f 81/54/78 52/40/78 83/55/78
f 85/56/67 84/56/66 81/54/64
f 81/54/64 84/56/66 80/54/63
f 82/55/27 80/54/27 86/57/27
f 86/57/27 80/54/27 84/56/27
f 83/55/65 82/55/157 87/57/68
f 87/57/68 82/55/157 86/57/158
f 81/54/78 83/55/78 85/56/78
f 85/56/78 83/55/78 87/57/78
f 89/58/70 88/58/69 85/56/67
f 85/56/67 88/58/69 84/56/66
f 86/57/27 84/56/27 90/59/27
f 90/59/27 84/56/27 88/58/27
f 87/57/68 86/57/158 91/59/71
f 91/59/71 86/57/158 90/59/159
f 85/56/78 87/57/78 89/58/78
f 89/58/78 87/57/78 91/59/78
f 93/60/73 92/60/72 77/52/61
f 77/52/61 92/60/72 76/52/60
f 92/60/27 94/61/27 76/52/27
f 76/52/27 94/61/27 78/53/27
f 79/53/62 78/53/156 95/61/74
f 95/61/74 78/53/156 94/61/160
f 95/61/78 93/60/78 79/53/78
f 79/53/78 93/60/78 77/52/78
f 64/46/162 67/46/161 93/60/73
f 93/60/73 67/46/161 92/60/72
f 67/46/27 65/47/27 92/60/27
f 92/60/27 65/47/27 94/61/27
f 95/61/74 94/61/160 66/47/163
f 66/47/163 94/61/160 65/47/163
f 66/47/78 64/46/78 95/61/78
f 95/61/78 64/46/78 93/60/78
f 56/42/165 59/42/164 89/58/70
f 89/58/70 59/42/164 88/58/69
f 90/59/27 88/58/27 57/43/27
f 57/43/27 88/58/27 59/42/27
f 91/59/71 90/59/159 58/43/166
f 58/43/166 90/59/159 57/43/166
f 89/58/78 91/59/78 56/42/78
f 56/42/78 91/59/78 58/43/78
f 98/64/77 97/63/76 96/62/75
f 96/62/75 97/63/76 99/62/78
f 101/66/80 96/62/75 100/65/79
f 100/65/79 96/62/75 99/62/78
f 104/65/83 103/66/82 102/67/81
f 102/67/81 103/66/82 105/68/84
f 102/67/81 105/68/84 106/69/85
f 106/69/85 105/68/84 107/70/86
f 107/70/86 108/71/87 106/69/85
f 106/69/85 108/71/87 109/72/88
f 109/72/88 108/71/87 110/73/89
f 110/73/89 108/71/87 111/74/90
f 114/63/93 113/75/92 112/64/91
f 112/64/91 113/75/92 115/76/94
f 113/75/92 116/77/95 115/76/94
f 115/76/94 116/77/95 117/78/96
f 117/78/96 116/77/95 118/79/97
f 118/79/97 116/77/95 119/80/98
f 119/80/98 120/81/99 118/79/97
f 118/79/97 120/81/99 121/82/100
f 124/67/103 123/69/102 122/68/101
f 122/68/101 123/69/102 125/70/104
f 122/68/101 101/66/167 124/67/103
f 124/67/103 101/66/167 100/65/168
f 128/80/107 127/77/106 126/79/105
f 126/79/105 127/77/106 129/78/108
f 128/80/107 126/79/105 130/81/109
f 130/81/109 126/79/105 131/82/110
f 125/70/104 123/69/102 132/71/111
f 132/71/111 123/69/102 133/72/112
f 97/63/170 98/64/169 134/75/113
f 134/75/113 98/64/169 135/76/114
f 134/75/113 135/76/114 127/77/106
f 127/77/106 135/76/114 129/78/108
f 133/72/112 136/73/115 132/71/111
f 132/71/111 136/73/115 137/74/116
f 99/62/48 138/83/48 100/65/168
f 100/65/168 138/83/48 124/67/103
f 140/85/48 128/80/107 139/84/48
f 139/84/48 128/80/107 130/81/109
f 138/83/48 141/86/48 124/67/103
f 124/67/103 141/86/48 123/69/102
f 99/62/48 97/63/170 138/83/48
f 138/83/48 97/63/170 134/75/113
f 141/86/48 140/85/48 123/69/102
f 123/69/102 140/85/48 133/72/112
f 138/83/48 134/75/113 141/86/48
f 141/86/48 134/75/113 127/77/106
f 140/85/48 139/84/48 133/72/112
f 133/72/112 139/84/48 136/73/115
f 141/86/48 127/77/106 140/85/48
f 140/85/48 127/77/106 128/80/107
f 143/62/51 104/65/83 142/83/51
f 142/83/51 104/65/83 102/67/81
f 145/85/51 144/84/51 119/80/98
f 119/80/98 144/84/51 120/81/99
f 142/83/51 102/67/81 146/86/51
f 146/86/51 102/67/81 106/69/85
f 143/62/51 142/83/51 114/63/93
f 114/63/93 142/83/51 113/75/92
f 146/86/51 106/69/85 145/85/51
f 145/85/51 106/69/85 109/72/88
f 142/83/51 146/86/51 113/75/92
f 113/75/92 146/86/51 116/77/95
f 145/85/51 109/72/88 144/84/51
f 144/84/51 109/72/88 110/73/89
f 146/86/51 145/85/51 116/77/95
f 116/77/95 145/85/51 119/80/98
f 105/68/84 103/66/82 122/68/101
f 122/68/101 103/66/82 101/66/167
f 118/79/97 121/82/100 126/79/105
f 126/79/105 121/82/100 131/82/110
f 107/70/86 105/68/84 125/70/104
f 125/70/104 105/68/84 122/68/101
f 112/64/91 115/76/94 98/64/169
f 98/64/169 115/76/94 135/76/114
f 108/71/87 107/70/86 132/71/111
f 132/71/111 107/70/86 125/70/104
f 115/76/94 117/78/96 135/76/114
f 135/76/114 117/78/96 129/78/108
f 111/74/90 108/71/87 137/74/116
f 137/74/116 108/71/87 132/71/111
f 117/78/96 118/79/97 129/78/108
f 129/78/108 118/79/97 126/79/105
f 147/62/117 96/62/75 103/66/171
f 103/66/171 96/62/75 101/66/80
f 147/62/117 112/64/172 96/62/75
f 96/62/75 112/64/172 98/64/77
f 103/66/171 104/65/173 147/62/117
f 147/62/117 104/65/173 143/62/78
f 143/62/78 114/63/174 147/62/117
f 147/62/117 114/63/174 112/64/172
f 150/89/120 149/88/119 148/87/118
f 148/87/118 149/88/119 151/90/121
f 153/92/123 151/90/175 152/91/122
f 152/91/122 151/90/175 154/93/124
f 148/87/118 153/92/176 155/94/125
f 155/94/125 153/92/176 156/95/126
f 159/98/129 158/97/128 157/96/127
f 157/96/127 158/97/128 155/94/125
f 157/96/177 156/95/177 160/99/130
f 160/99/130 156/95/177 161/100/131
f 164/103/134 163/102/133 162/101/132
f 162/101/132 163/102/133 160/99/178
f 162/101/132 161/100/179 165/104/135
f 165/104/135 161/100/179 152/91/179
f 167/106/137 166/105/136 154/93/180
f 154/93/180 166/105/136 165/104/135
f 150/108/120 148/87/118 158/107/128
f 158/107/128 148/87/118 155/94/125
f 159/110/129 157/96/127 163/109/133
f 163/109/133 157/96/127 160/99/130
f 164/112/134 162/101/132 166/111/136
f 166/111/136 162/101/132 165/104/135
f 167/114/137 154/93/124 149/113/119
f 149/113/119 154/93/124 151/90/121
f 153/92/123 152/91/122 156/95/126
f 156/95/126 152/91/122 161/100/131
f 153/92/123 148/87/118 151/90/121
f 157/96/127 155/94/125 156/95/126
f 162/101/132 160/99/130 161/100/131
f 154/93/124 165/104/135 152/91/122
usemtl initialShadingGroup
f 3/4/3 2/116/2 1/115/1
f 4/3/4 3/4/3 1/115/1
f 7/2/7 6/118/6 5/117/5
f 8/1/8 7/2/7 5/117/5
f 2/116/2 12/120/12 11/119/11
f 1/115/1 2/116/2 11/119/11
f 6/118/6 14/122/14 13/121/13
f 5/117/5 6/118/6 13/121/13
f 12/120/12 16/120/16 15/123/15
f 11/119/11 12/120/12 15/123/15
f 14/122/14 18/125/18 17/124/17
f 13/121/13 14/122/14 17/124/17
f 20/4/20 19/116/19 2/116/2
f 3/4/3 20/4/20 2/116/2
f 21/126/21 4/3/4 1/115/1
f 22/127/22 21/126/21 1/115/1
f 20/127/20 3/118/3 10/2/10
f 23/126/23 20/127/20 10/2/10
f 21/129/21 23/128/182 10/1/181
f 4/117/4 21/129/21 10/1/181
f 24/130/24 12/2/12 2/1/2
f 19/128/19 24/130/24 2/1/2
f 22/126/22 1/2/1 11/2/11
f 25/130/25 22/126/22 11/2/11
f 26/4/26 16/4/16 12/5/12
f 24/131/24 26/4/26 12/5/12
f 27/126/27 15/5/27 16/3/27
f 26/126/27 27/126/27 16/3/27
f 25/131/25 11/5/11 15/5/15
f 27/126/183 25/131/25 15/5/15
f 21/116/185 22/132/184 6/120/6
f 7/116/7 21/116/185 6/120/6
f 20/127/186 8/115/8 5/119/5
f 19/133/187 20/127/186 5/119/5
f 21/133/185 7/122/7 9/118/9
f 23/127/188 21/133/185 9/118/9
f 20/134/186 23/129/190 9/117/189
f 8/121/8 20/134/186 9/117/189
f 25/135/191 14/123/14 6/120/6
f 22/132/184 25/135/191 6/120/6
f 19/133/187 5/119/5 13/123/13
f 24/135/192 19/133/187 13/123/13
f 27/135/193 18/125/18 14/122/14
f 25/133/191 27/135/193 14/122/14
f 26/136/27 17/124/27 18/125/27
f 27/135/27 26/136/27 18/125/27
f 24/134/192 13/121/13 17/124/17
f 26/136/194 24/134/192 17/124/17
f 30/138/28 29/123/28 28/137/28
f 31/139/28 30/138/28 28/137/28
f 29/123/29 33/125/29 32/140/29
f 28/137/29 29/123/29 32/140/29
f 33/125/30 35/124/30 34/141/30
f 32/140/30 33/125/30 34/141/30
f 35/124/50 30/143/50 31/142/50
f 34/141/50 35/124/50 31/142/50
f 35/145/27 33/144/27 29/123/27
f 30/138/27 35/145/27 29/123/27
f 31/139/78 28/137/78 32/146/78
f 34/147/78 31/139/78 32/146/78
# 296 elements

